<svg width="1576" height="1080" viewBox="0 0 1576 1080" fill="none" xmlns="http://www.w3.org/2000/svg">
<rect width="1576" height="1080" fill="white"/>
<path d="M1014.65 226.737H561.346C506.302 226.737 464.209 267.461 464.209 320.716V759.284C464.209 812.539 506.302 853.263 561.346 853.263H1014.65C1069.7 853.263 1111.79 812.539 1111.79 759.284V320.716C1111.79 267.461 1069.7 226.737 1014.65 226.737ZM1047.03 599.52L985.513 540C946.658 505.541 885.137 505.541 849.52 540L820.379 568.194L726.48 477.347C687.625 442.889 626.104 442.889 590.487 477.347L528.967 536.867V320.716C528.967 301.92 541.919 289.39 561.346 289.39H1014.65C1034.08 289.39 1047.03 301.92 1047.03 320.716V599.52Z" fill="#C7C2C2"/>
</svg>
