<svg width="51" height="51" viewBox="0 0 51 51" fill="none" xmlns="http://www.w3.org/2000/svg">
<circle cx="25.6357" cy="25.2793" r="25" fill="#F1FCFF"/>
<path d="M16.6126 17.7793C16.6126 17.1163 16.9295 16.4804 17.4936 16.0115C18.0576 15.5427 18.8227 15.2793 19.6204 15.2793C20.0192 15.2793 20.4017 15.1476 20.6838 14.9132C20.9658 14.6788 21.1242 14.3608 21.1242 14.0293C21.1242 13.6978 20.9658 13.3798 20.6838 13.1454C20.4017 12.911 20.0192 12.7793 19.6204 12.7793C18.025 12.7793 16.4949 13.3061 15.3668 14.2438C14.2386 15.1814 13.6049 16.4532 13.6049 17.7793V21.5293C13.6049 22.1923 13.288 22.8282 12.7239 23.2971C12.1599 23.7659 11.3948 24.0293 10.5971 24.0293C10.1983 24.0293 9.81577 24.161 9.53374 24.3954C9.2517 24.6298 9.09326 24.9478 9.09326 25.2793C9.09326 25.6108 9.2517 25.9288 9.53374 26.1632C9.81577 26.3976 10.1983 26.5293 10.5971 26.5293C11.3948 26.5293 12.1599 26.7927 12.7239 27.2615C13.288 27.7304 13.6049 28.3663 13.6049 29.0293V32.7793C13.6049 34.1054 14.2386 35.3771 15.3668 36.3148C16.4949 37.2525 18.025 37.7793 19.6204 37.7793C20.0192 37.7793 20.4017 37.6476 20.6838 37.4132C20.9658 37.1788 21.1242 36.8608 21.1242 36.5293C21.1242 36.1978 20.9658 35.8798 20.6838 35.6454C20.4017 35.411 20.0192 35.2793 19.6204 35.2793C18.8227 35.2793 18.0576 35.0159 17.4936 34.5471C16.9295 34.0782 16.6126 33.4423 16.6126 32.7793V29.0293C16.6078 28.3175 16.4201 27.6147 16.0622 26.968C15.7043 26.3213 15.1844 25.7455 14.5373 25.2793C15.1844 24.813 15.7043 24.2373 16.0622 23.5906C16.4201 22.9439 16.6078 22.2411 16.6126 21.5293V17.7793ZM40.6746 24.0293C39.8769 24.0293 39.1118 23.7659 38.5478 23.2971C37.9837 22.8282 37.6668 22.1923 37.6668 21.5293V17.7793C37.6668 16.4532 37.033 15.1814 35.9049 14.2438C34.7768 13.3061 33.2467 12.7793 31.6513 12.7793C31.2525 12.7793 30.87 12.911 30.5879 13.1454C30.3059 13.3798 30.1475 13.6978 30.1475 14.0293C30.1475 14.3608 30.3059 14.6788 30.5879 14.9132C30.87 15.1476 31.2525 15.2793 31.6513 15.2793C32.449 15.2793 33.2141 15.5427 33.7781 16.0115C34.3422 16.4804 34.6591 17.1163 34.6591 17.7793V21.5293C34.6639 22.2411 34.8516 22.9439 35.2095 23.5906C35.5674 24.2373 36.0873 24.813 36.7344 25.2793C36.0873 25.7455 35.5674 26.3213 35.2095 26.968C34.8516 27.6147 34.6639 28.3175 34.6591 29.0293V32.7793C34.6591 33.4423 34.3422 34.0782 33.7781 34.5471C33.2141 35.0159 32.449 35.2793 31.6513 35.2793C31.2525 35.2793 30.87 35.411 30.5879 35.6454C30.3059 35.8798 30.1475 36.1978 30.1475 36.5293C30.1475 36.8608 30.3059 37.1788 30.5879 37.4132C30.87 37.6476 31.2525 37.7793 31.6513 37.7793C33.2467 37.7793 34.7768 37.2525 35.9049 36.3148C37.033 35.3771 37.6668 34.1054 37.6668 32.7793V29.0293C37.6668 28.3663 37.9837 27.7304 38.5478 27.2615C39.1118 26.7927 39.8769 26.5293 40.6746 26.5293C41.0734 26.5293 41.4559 26.3976 41.738 26.1632C42.02 25.9288 42.1784 25.6108 42.1784 25.2793C42.1784 24.9478 42.02 24.6298 41.738 24.3954C41.4559 24.161 41.0734 24.0293 40.6746 24.0293Z" fill="#000AFF"/>
</svg>
