<svg width="50" height="50" viewBox="0 0 50 50" fill="none" xmlns="http://www.w3.org/2000/svg">
<circle cx="25" cy="25" r="25" fill="#F1FCFF"/>
<path d="M34.2102 17.7632H30.2628V16.4474C30.2628 15.4005 29.847 14.3964 29.1067 13.6562C28.3664 12.9159 27.3624 12.5 26.3155 12.5H23.6839C22.637 12.5 21.633 12.9159 20.8927 13.6562C20.1524 14.3964 19.7365 15.4005 19.7365 16.4474V17.7632H15.7892C14.7423 17.7632 13.7382 18.179 12.998 18.9193C12.2577 19.6596 11.8418 20.6636 11.8418 21.7105V33.5526C11.8418 34.5995 12.2577 35.6036 12.998 36.3438C13.7382 37.0841 14.7423 37.5 15.7892 37.5H34.2102C35.2571 37.5 36.2612 37.0841 37.0014 36.3438C37.7417 35.6036 38.1576 34.5995 38.1576 33.5526V21.7105C38.1576 20.6636 37.7417 19.6596 37.0014 18.9193C36.2612 18.179 35.2571 17.7632 34.2102 17.7632ZM22.3681 16.4474C22.3681 16.0984 22.5067 15.7637 22.7535 15.517C23.0003 15.2702 23.3349 15.1316 23.6839 15.1316H26.3155C26.6645 15.1316 26.9991 15.2702 27.2459 15.517C27.4926 15.7637 27.6313 16.0984 27.6313 16.4474V17.7632H22.3681V16.4474ZM35.526 33.5526C35.526 33.9016 35.3874 34.2363 35.1406 34.483C34.8939 34.7298 34.5592 34.8684 34.2102 34.8684H15.7892C15.4402 34.8684 15.1055 34.7298 14.8588 34.483C14.612 34.2363 14.4734 33.9016 14.4734 33.5526V26.3158C15.7569 26.8249 17.0762 27.2383 18.4207 27.5526V28.3289C18.4207 28.6779 18.5594 29.0126 18.8061 29.2594C19.0529 29.5061 19.3876 29.6447 19.7365 29.6447C20.0855 29.6447 20.4202 29.5061 20.6669 29.2594C20.9137 29.0126 21.0523 28.6779 21.0523 28.3289V28.0526C22.3607 28.2308 23.6793 28.3231 24.9997 28.3289C26.3201 28.3231 27.6387 28.2308 28.9471 28.0526V28.3289C28.9471 28.6779 29.0857 29.0126 29.3324 29.2594C29.5792 29.5061 29.9139 29.6447 30.2628 29.6447C30.6118 29.6447 30.9465 29.5061 31.1933 29.2594C31.44 29.0126 31.5786 28.6779 31.5786 28.3289V27.5526C32.9231 27.2383 34.2425 26.8249 35.526 26.3158V33.5526ZM35.526 23.4342C34.2463 23.9743 32.9265 24.4143 31.5786 24.75V24.3421C31.5786 23.9931 31.44 23.6585 31.1933 23.4117C30.9465 23.1649 30.6118 23.0263 30.2628 23.0263C29.9139 23.0263 29.5792 23.1649 29.3324 23.4117C29.0857 23.6585 28.9471 23.9931 28.9471 24.3421V25.3158C26.3303 25.7106 23.6691 25.7106 21.0523 25.3158V24.3421C21.0523 23.9931 20.9137 23.6585 20.6669 23.4117C20.4202 23.1649 20.0855 23.0263 19.7365 23.0263C19.3876 23.0263 19.0529 23.1649 18.8061 23.4117C18.5594 23.6585 18.4207 23.9931 18.4207 24.3421V24.7763C17.0729 24.4406 15.7531 24.0006 14.4734 23.4605V21.7105C14.4734 21.3616 14.612 21.0269 14.8588 20.7801C15.1055 20.5334 15.4402 20.3947 15.7892 20.3947H34.2102C34.5592 20.3947 34.8939 20.5334 35.1406 20.7801C35.3874 21.0269 35.526 21.3616 35.526 21.7105V23.4342Z" fill="#000AFF"/>
</svg>
