<svg width="50" height="50" viewBox="0 0 50 50" fill="none" xmlns="http://www.w3.org/2000/svg">
<circle cx="25" cy="25" r="25" fill="#F1FCFF"/>
<path d="M21.5583 26.3889H13.6116C13.2603 26.3889 12.9234 26.5352 12.675 26.7957C12.4267 27.0562 12.2871 27.4094 12.2871 27.7778V36.1111C12.2871 36.4795 12.4267 36.8327 12.675 37.0932C12.9234 37.3537 13.2603 37.5 13.6116 37.5H21.5583C21.9096 37.5 22.2465 37.3537 22.4949 37.0932C22.7433 36.8327 22.8828 36.4795 22.8828 36.1111V27.7778C22.8828 27.4094 22.7433 27.0562 22.4949 26.7957C22.2465 26.5352 21.9096 26.3889 21.5583 26.3889ZM20.2339 34.7222H14.936V29.1667H20.2339V34.7222ZM34.8029 12.5H26.8562C26.5049 12.5 26.168 12.6463 25.9196 12.9068C25.6713 13.1673 25.5317 13.5205 25.5317 13.8889V22.2222C25.5317 22.5906 25.6713 22.9438 25.9196 23.2043C26.168 23.4648 26.5049 23.6111 26.8562 23.6111H34.8029C35.1542 23.6111 35.4911 23.4648 35.7395 23.2043C35.9879 22.9438 36.1274 22.5906 36.1274 22.2222V13.8889C36.1274 13.5205 35.9879 13.1673 35.7395 12.9068C35.4911 12.6463 35.1542 12.5 34.8029 12.5ZM33.4785 20.8333H28.1806V15.2778H33.4785V20.8333ZM34.8029 30.5556H32.154V27.7778C32.154 27.4094 32.0145 27.0562 31.7661 26.7957C31.5177 26.5352 31.1808 26.3889 30.8296 26.3889C30.4783 26.3889 30.1414 26.5352 29.893 26.7957C29.6446 27.0562 29.5051 27.4094 29.5051 27.7778V30.5556H26.8562C26.5049 30.5556 26.168 30.7019 25.9196 30.9623C25.6713 31.2228 25.5317 31.5761 25.5317 31.9444C25.5317 32.3128 25.6713 32.6661 25.9196 32.9265C26.168 33.187 26.5049 33.3333 26.8562 33.3333H29.5051V36.1111C29.5051 36.4795 29.6446 36.8327 29.893 37.0932C30.1414 37.3537 30.4783 37.5 30.8296 37.5C31.1808 37.5 31.5177 37.3537 31.7661 37.0932C32.0145 36.8327 32.154 36.4795 32.154 36.1111V33.3333H34.8029C35.1542 33.3333 35.4911 33.187 35.7395 32.9265C35.9879 32.6661 36.1274 32.3128 36.1274 31.9444C36.1274 31.5761 35.9879 31.2228 35.7395 30.9623C35.4911 30.7019 35.1542 30.5556 34.8029 30.5556ZM21.5583 12.5H13.6116C13.2603 12.5 12.9234 12.6463 12.675 12.9068C12.4267 13.1673 12.2871 13.5205 12.2871 13.8889V22.2222C12.2871 22.5906 12.4267 22.9438 12.675 23.2043C12.9234 23.4648 13.2603 23.6111 13.6116 23.6111H21.5583C21.9096 23.6111 22.2465 23.4648 22.4949 23.2043C22.7433 22.9438 22.8828 22.5906 22.8828 22.2222V13.8889C22.8828 13.5205 22.7433 13.1673 22.4949 12.9068C22.2465 12.6463 21.9096 12.5 21.5583 12.5ZM20.2339 20.8333H14.936V15.2778H20.2339V20.8333Z" fill="#938400"/>
</svg>
