<svg width="50" height="50" viewBox="0 0 50 50" fill="none" xmlns="http://www.w3.org/2000/svg">
<circle cx="25" cy="25" r="25" fill="#F1FCFF"/>
<path d="M32.5186 26.5093V22.5246C32.5168 20.7491 31.8867 19.0316 30.74 17.6761C29.5932 16.3207 28.0038 15.4148 26.2532 15.1189V13.7531C26.2532 13.4207 26.1212 13.102 25.8862 12.867C25.6512 12.632 25.3325 12.5 25.0001 12.5C24.6678 12.5 24.3491 12.632 24.1141 12.867C23.8791 13.102 23.7471 13.4207 23.7471 13.7531V15.1189C21.9965 15.4148 20.407 16.3207 19.2603 17.6761C18.1136 19.0316 17.4835 20.7491 17.4817 22.5246V26.5093C16.7505 26.7678 16.1171 27.2462 15.6685 27.8788C15.2198 28.5115 14.9778 29.2674 14.9756 30.043V32.5491C14.9756 32.8815 15.1076 33.2002 15.3426 33.4352C15.5776 33.6702 15.8963 33.8022 16.2287 33.8022H20.1633C20.4519 34.864 21.0818 35.8014 21.9559 36.4696C22.8301 37.1379 23.8998 37.5 25.0001 37.5C26.1005 37.5 27.1702 37.1379 28.0444 36.4696C28.9185 35.8014 29.5484 34.864 29.837 33.8022H33.7716C34.104 33.8022 34.4227 33.6702 34.6577 33.4352C34.8927 33.2002 35.0247 32.8815 35.0247 32.5491V30.043C35.0225 29.2674 34.7805 28.5115 34.3318 27.8788C33.8832 27.2462 33.2498 26.7678 32.5186 26.5093ZM19.9879 22.5246C19.9879 21.1952 20.5159 19.9203 21.4559 18.9803C22.3959 18.0404 23.6708 17.5123 25.0001 17.5123C26.3295 17.5123 27.6044 18.0404 28.5444 18.9803C29.4843 19.9203 30.0124 21.1952 30.0124 22.5246V26.2838H19.9879V22.5246ZM25.0001 35.0553C24.5628 35.0526 24.1337 34.9356 23.7556 34.7157C23.3775 34.4959 23.0635 34.181 22.8449 33.8022H27.1554C26.9368 34.181 26.6228 34.4959 26.2447 34.7157C25.8666 34.9356 25.4375 35.0526 25.0001 35.0553ZM32.5186 31.296H17.4817V30.043C17.4817 29.7106 17.6137 29.3919 17.8487 29.1569C18.0837 28.9219 18.4025 28.7899 18.7348 28.7899H31.2655C31.5978 28.7899 31.9166 28.9219 32.1516 29.1569C32.3865 29.3919 32.5186 29.7106 32.5186 30.043V31.296Z" fill="#000AFF"/>
</svg>
