<svg width="50" height="50" viewBox="0 0 50 50" fill="none" xmlns="http://www.w3.org/2000/svg">
<circle cx="25" cy="25" r="25" fill="#F1FCFF"/>
<path d="M36.3344 12.7349C35.4484 12.5822 34.5512 12.5037 33.6522 12.5C30.5847 12.4975 27.5812 13.3771 24.9997 15.0339C22.4115 13.3988 19.4085 12.5408 16.3472 12.5618C15.4481 12.5655 14.5509 12.644 13.6649 12.7967C13.3747 12.8467 13.1119 12.9987 12.9238 13.2253C12.7357 13.4519 12.6347 13.7383 12.639 14.0327V28.8656C12.6363 29.0472 12.6737 29.2272 12.7485 29.3927C12.8233 29.5582 12.9337 29.7052 13.0718 29.8232C13.2099 29.9412 13.3723 30.0274 13.5474 30.0755C13.7226 30.1236 13.9062 30.1325 14.0852 30.1016C15.8565 29.795 17.6713 29.8458 19.4226 30.2513C21.1739 30.6568 22.8264 31.4086 24.2827 32.4625L24.4311 32.5491H24.567C24.7041 32.6062 24.8512 32.6356 24.9997 32.6356C25.1482 32.6356 25.2952 32.6062 25.4323 32.5491H25.5683L25.7166 32.4625C27.1627 31.3851 28.8105 30.6089 30.5622 30.18C32.3138 29.7511 34.1338 29.6782 35.9142 29.9657C36.0932 29.9966 36.2768 29.9876 36.4519 29.9395C36.6271 29.8914 36.7894 29.8053 36.9275 29.6872C37.0656 29.5692 37.176 29.4222 37.2508 29.2567C37.3256 29.0912 37.363 28.9112 37.3604 28.7296V13.8968C37.3475 13.6151 37.2387 13.3464 37.0521 13.135C36.8655 12.9237 36.6123 12.7825 36.3344 12.7349ZM23.7636 29.1622C21.4767 27.9592 18.9312 27.3313 16.3472 27.3328C15.9393 27.3328 15.5314 27.3328 15.1111 27.3328V14.9721C15.5228 14.9484 15.9355 14.9484 16.3472 14.9721C18.9842 14.9692 21.5637 15.7431 23.7636 17.1971V29.1622ZM34.8882 27.3823C34.468 27.3823 34.0601 27.3823 33.6522 27.3823C31.0681 27.3807 28.5226 28.0086 26.2357 29.2117V17.1971C28.4357 15.7431 31.0151 14.9692 33.6522 14.9721C34.0638 14.9484 34.4765 14.9484 34.8882 14.9721V27.3823ZM36.3344 32.512C35.4484 32.3594 34.5512 32.2808 33.6522 32.2771C30.5847 32.2746 27.5812 33.1542 24.9997 34.8111C22.4181 33.1542 19.4146 32.2746 16.3472 32.2771C15.4481 32.2808 14.5509 32.3594 13.6649 32.512C13.504 32.5375 13.3497 32.5946 13.211 32.68C13.0722 32.7653 12.9517 32.8773 12.8563 33.0094C12.761 33.1415 12.6927 33.2911 12.6554 33.4497C12.6181 33.6083 12.6125 33.7727 12.639 33.9335C12.7018 34.2545 12.8893 34.5375 13.1603 34.7205C13.4314 34.9035 13.764 34.9717 14.0852 34.91C15.8565 34.6033 17.6713 34.6542 19.4226 35.0596C21.1739 35.4651 22.8264 36.2169 24.2827 37.2709C24.4921 37.4199 24.7427 37.5 24.9997 37.5C25.2566 37.5 25.5072 37.4199 25.7166 37.2709C27.1729 36.2169 28.8254 35.4651 30.5767 35.0596C32.3281 34.6542 34.1428 34.6033 35.9142 34.91C36.2354 34.9717 36.5679 34.9035 36.839 34.7205C37.1101 34.5375 37.2975 34.2545 37.3604 33.9335C37.3868 33.7727 37.3812 33.6083 37.3439 33.4497C37.3066 33.2911 37.2383 33.1415 37.143 33.0094C37.0476 32.8773 36.9271 32.7653 36.7884 32.68C36.6496 32.5946 36.4953 32.5375 36.3344 32.512Z" fill="#000AFF"/>
</svg>
