<svg width="184" height="52" viewBox="0 0 184 52" fill="none" xmlns="http://www.w3.org/2000/svg">
<g filter="url(#filter0_b_1341_46)">
<rect width="184" height="52" rx="5" fill="#331564" fill-opacity="0.04"/>
<path d="M31.1187 31.1416C31.1187 31.387 31.106 31.5986 31.0806 31.7764C31.0636 31.9456 31.034 32.0853 30.9917 32.1953C30.9494 32.3053 30.8944 32.3857 30.8267 32.4365C30.759 32.4788 30.6828 32.5 30.5981 32.5H21.1528C20.9666 32.5 20.8058 32.4831 20.6704 32.4492C20.535 32.4154 20.425 32.3519 20.3403 32.2588C20.2557 32.1572 20.1922 32.0133 20.1499 31.8271C20.116 31.641 20.0991 31.3997 20.0991 31.1035C20.0991 30.8242 20.1118 30.5872 20.1372 30.3926C20.1626 30.1895 20.2091 30.0117 20.2769 29.8594C20.3446 29.6986 20.4292 29.5462 20.5308 29.4023C20.6408 29.25 20.7804 29.085 20.9497 28.9072L23.7935 25.8604C24.3605 25.2679 24.8175 24.7305 25.1646 24.248C25.5116 23.7572 25.7824 23.3128 25.9771 22.915C26.1717 22.5088 26.3029 22.1364 26.3706 21.7979C26.4468 21.4593 26.4849 21.1377 26.4849 20.833C26.4849 20.5537 26.4383 20.2913 26.3452 20.0459C26.2606 19.792 26.1294 19.5719 25.9517 19.3857C25.7824 19.1995 25.5666 19.0557 25.3042 18.9541C25.0418 18.8441 24.7329 18.7891 24.3774 18.7891C23.8781 18.7891 23.4338 18.8525 23.0444 18.9795C22.6636 19.1064 22.325 19.2503 22.0288 19.4111C21.741 19.5635 21.4998 19.7074 21.3052 19.8428C21.1105 19.9697 20.9582 20.0332 20.8481 20.0332C20.772 20.0332 20.7043 20.0078 20.645 19.957C20.5942 19.9062 20.5519 19.8216 20.5181 19.7031C20.4842 19.5846 20.4546 19.4281 20.4292 19.2334C20.4123 19.0303 20.4038 18.7848 20.4038 18.4971C20.4038 18.3024 20.408 18.1416 20.4165 18.0146C20.4334 17.8792 20.4546 17.765 20.48 17.6719C20.5054 17.5703 20.5392 17.4857 20.5815 17.418C20.6239 17.3418 20.6958 17.2529 20.7974 17.1514C20.9074 17.0498 21.1021 16.9229 21.3813 16.7705C21.6691 16.6097 22.0203 16.4574 22.4351 16.3135C22.8498 16.1611 23.3068 16.0342 23.8062 15.9326C24.3055 15.8311 24.826 15.7803 25.3677 15.7803C26.2225 15.7803 26.9673 15.8903 27.6021 16.1104C28.2453 16.3219 28.7785 16.6224 29.2017 17.0117C29.6248 17.3926 29.938 17.8496 30.1411 18.3828C30.3527 18.9076 30.4585 19.4746 30.4585 20.084C30.4585 20.6172 30.4077 21.1419 30.3062 21.6582C30.2046 22.1745 29.993 22.7331 29.6714 23.334C29.3498 23.9264 28.897 24.5866 28.313 25.3145C27.729 26.0339 26.9546 26.8717 25.9897 27.8281L24.0728 29.7959H30.5474C30.632 29.7959 30.7082 29.8213 30.7759 29.8721C30.8521 29.9229 30.9155 30.0033 30.9663 30.1133C31.0171 30.2148 31.0552 30.3545 31.0806 30.5322C31.106 30.7015 31.1187 30.9046 31.1187 31.1416ZM45.9468 32.0049C45.9468 32.098 45.9214 32.1826 45.8706 32.2588C45.8283 32.3265 45.7394 32.3857 45.604 32.4365C45.4771 32.4788 45.2993 32.5127 45.0708 32.5381C44.8423 32.5635 44.5545 32.5762 44.2075 32.5762C43.6574 32.5762 43.2596 32.555 43.0142 32.5127C42.7772 32.4704 42.6037 32.4069 42.4937 32.3223C42.3921 32.2376 42.3117 32.1361 42.2524 32.0176L37.2886 24.2227V32.0176C37.2886 32.1107 37.2632 32.1911 37.2124 32.2588C37.1616 32.3265 37.0728 32.3857 36.9458 32.4365C36.8188 32.4788 36.6496 32.5127 36.438 32.5381C36.2264 32.5635 35.9556 32.5762 35.6255 32.5762C35.3039 32.5762 35.033 32.5635 34.813 32.5381C34.6014 32.5127 34.4321 32.4788 34.3052 32.4365C34.1782 32.3857 34.0851 32.3265 34.0259 32.2588C33.9751 32.1911 33.9497 32.1107 33.9497 32.0176V16.542C33.9497 16.4489 33.9751 16.3685 34.0259 16.3008C34.0851 16.2331 34.1782 16.1781 34.3052 16.1357C34.4321 16.0934 34.6014 16.0596 34.813 16.0342C35.033 16.0088 35.3039 15.9961 35.6255 15.9961C35.9556 15.9961 36.2264 16.0088 36.438 16.0342C36.6496 16.0596 36.8188 16.0934 36.9458 16.1357C37.0728 16.1781 37.1616 16.2331 37.2124 16.3008C37.2632 16.3685 37.2886 16.4489 37.2886 16.542V23.5371L42.1001 16.5547C42.1593 16.4447 42.2313 16.3558 42.3159 16.2881C42.4006 16.2119 42.5106 16.1527 42.646 16.1104C42.7814 16.068 42.9549 16.0384 43.1665 16.0215C43.3781 16.0046 43.6489 15.9961 43.979 15.9961C44.3175 15.9961 44.5968 16.0088 44.8169 16.0342C45.0369 16.0596 45.2104 16.0977 45.3374 16.1484C45.4728 16.1908 45.5659 16.2458 45.6167 16.3135C45.6675 16.3812 45.6929 16.4574 45.6929 16.542C45.6929 16.6859 45.6548 16.834 45.5786 16.9863C45.5024 17.1387 45.3586 17.3799 45.147 17.71L40.6401 23.6133L45.5532 31.04C45.7394 31.387 45.8494 31.6198 45.8833 31.7383C45.9256 31.8483 45.9468 31.9372 45.9468 32.0049ZM58.6675 25.2002C58.6675 25.4372 58.6548 25.6361 58.6294 25.7969C58.604 25.9577 58.5659 26.0889 58.5151 26.1904C58.4644 26.2835 58.4051 26.3512 58.3374 26.3936C58.2697 26.4359 58.1978 26.457 58.1216 26.457H54.1733V30.7607C54.1733 30.8454 54.1522 30.9215 54.1099 30.9893C54.0675 31.0485 53.9956 31.1035 53.894 31.1543C53.7925 31.1966 53.6571 31.2305 53.4878 31.2559C53.3185 31.2812 53.1069 31.2939 52.853 31.2939C52.5991 31.2939 52.3875 31.2812 52.2183 31.2559C52.049 31.2305 51.9136 31.1966 51.812 31.1543C51.7104 31.1035 51.6343 31.0485 51.5835 30.9893C51.5412 30.9215 51.52 30.8454 51.52 30.7607V26.457H47.5845C47.5083 26.457 47.4364 26.4359 47.3687 26.3936C47.3094 26.3512 47.2544 26.2835 47.2036 26.1904C47.1528 26.0889 47.1105 25.9577 47.0767 25.7969C47.0513 25.6361 47.0386 25.4372 47.0386 25.2002C47.0386 24.9717 47.0513 24.777 47.0767 24.6162C47.1021 24.4469 47.1359 24.3158 47.1782 24.2227C47.229 24.1211 47.284 24.0492 47.3433 24.0068C47.4025 23.9645 47.4702 23.9434 47.5464 23.9434H51.52V19.6523C51.52 19.5677 51.5412 19.4915 51.5835 19.4238C51.6343 19.3477 51.7104 19.2884 51.812 19.2461C51.9136 19.1953 52.049 19.1572 52.2183 19.1318C52.3875 19.1064 52.5991 19.0938 52.853 19.0938C53.1069 19.0938 53.3185 19.1064 53.4878 19.1318C53.6571 19.1572 53.7925 19.1953 53.894 19.2461C53.9956 19.2884 54.0675 19.3477 54.1099 19.4238C54.1522 19.4915 54.1733 19.5677 54.1733 19.6523V23.9434H58.1597C58.2274 23.9434 58.2909 23.9645 58.3501 24.0068C58.4178 24.0492 58.4728 24.1211 58.5151 24.2227C58.5659 24.3158 58.604 24.4469 58.6294 24.6162C58.6548 24.777 58.6675 24.9717 58.6675 25.2002Z" fill="#331564"/>
<path d="M83.0811 26.2988C83.0811 26.9902 82.9785 27.6084 82.7734 28.1533C82.5742 28.6924 82.2871 29.1494 81.9121 29.5244C81.5371 29.8994 81.0801 30.1836 80.541 30.377C80.002 30.5703 79.3896 30.667 78.7041 30.667C78.0771 30.667 77.5059 30.5762 76.9902 30.3945C76.4746 30.2129 76.0322 29.9463 75.6631 29.5947C75.2939 29.2373 75.0098 28.792 74.8105 28.2588C74.6113 27.7256 74.5117 27.1104 74.5117 26.4131V19.3555C74.5117 19.3086 74.5234 19.2676 74.5469 19.2324C74.5703 19.1973 74.6113 19.1709 74.6699 19.1533C74.7285 19.1299 74.8047 19.1123 74.8984 19.1006C74.9922 19.083 75.1152 19.0742 75.2676 19.0742C75.4082 19.0742 75.5283 19.083 75.6279 19.1006C75.7275 19.1123 75.8037 19.1299 75.8564 19.1533C75.915 19.1709 75.9561 19.1973 75.9795 19.2324C76.0029 19.2676 76.0146 19.3086 76.0146 19.3555V26.2285C76.0146 26.7559 76.0791 27.2158 76.208 27.6084C76.3369 28.001 76.5215 28.3291 76.7617 28.5928C77.0078 28.8506 77.3008 29.0469 77.6406 29.1816C77.9863 29.3105 78.373 29.375 78.8008 29.375C79.2402 29.375 79.6299 29.3105 79.9697 29.1816C80.3154 29.0527 80.6055 28.8594 80.8398 28.6016C81.0801 28.3438 81.2617 28.0244 81.3848 27.6436C81.5137 27.2627 81.5781 26.8174 81.5781 26.3076V19.3555C81.5781 19.3086 81.5898 19.2676 81.6133 19.2324C81.6367 19.1973 81.6777 19.1709 81.7363 19.1533C81.7949 19.1299 81.8711 19.1123 81.9648 19.1006C82.0645 19.083 82.1875 19.0742 82.334 19.0742C82.4746 19.0742 82.5918 19.083 82.6855 19.1006C82.7852 19.1123 82.8613 19.1299 82.9141 19.1533C82.9727 19.1709 83.0137 19.1973 83.0371 19.2324C83.0664 19.2676 83.0811 19.3086 83.0811 19.3555V26.2988ZM92.7227 30.2803C92.7227 30.3271 92.7109 30.3682 92.6875 30.4033C92.6641 30.4326 92.626 30.459 92.5732 30.4824C92.5205 30.5059 92.4473 30.5234 92.3535 30.5352C92.2598 30.5469 92.1426 30.5527 92.002 30.5527C91.8555 30.5527 91.7354 30.5469 91.6416 30.5352C91.5479 30.5234 91.4746 30.5059 91.4219 30.4824C91.3691 30.459 91.3311 30.4326 91.3076 30.4033C91.2842 30.3682 91.2725 30.3271 91.2725 30.2803V25.6484C91.2725 25.1973 91.2373 24.834 91.167 24.5586C91.0967 24.2832 90.9941 24.0459 90.8594 23.8467C90.7246 23.6475 90.5488 23.4951 90.332 23.3896C90.1211 23.2842 89.875 23.2314 89.5938 23.2314C89.2305 23.2314 88.8672 23.3604 88.5039 23.6182C88.1406 23.876 87.7598 24.2539 87.3613 24.752V30.2803C87.3613 30.3271 87.3496 30.3682 87.3262 30.4033C87.3027 30.4326 87.2646 30.459 87.2119 30.4824C87.1592 30.5059 87.0859 30.5234 86.9922 30.5352C86.8984 30.5469 86.7783 30.5527 86.6318 30.5527C86.4912 30.5527 86.374 30.5469 86.2803 30.5352C86.1865 30.5234 86.1104 30.5059 86.0518 30.4824C85.999 30.459 85.9609 30.4326 85.9375 30.4033C85.9199 30.3682 85.9111 30.3271 85.9111 30.2803V22.3701C85.9111 22.3232 85.9199 22.2852 85.9375 22.2559C85.9551 22.2207 85.9902 22.1914 86.043 22.168C86.0957 22.1387 86.1631 22.1211 86.2451 22.1152C86.3271 22.1035 86.4355 22.0977 86.5703 22.0977C86.6992 22.0977 86.8047 22.1035 86.8867 22.1152C86.9746 22.1211 87.042 22.1387 87.0889 22.168C87.1357 22.1914 87.168 22.2207 87.1855 22.2559C87.209 22.2852 87.2207 22.3232 87.2207 22.3701V23.416C87.666 22.918 88.1084 22.5547 88.5479 22.3262C88.9932 22.0918 89.4414 21.9746 89.8926 21.9746C90.4199 21.9746 90.8623 22.0654 91.2197 22.2471C91.583 22.4229 91.876 22.6602 92.0986 22.959C92.3213 23.2578 92.4795 23.6094 92.5732 24.0137C92.6729 24.4121 92.7227 24.8926 92.7227 25.4551V30.2803ZM96.8184 30.2803C96.8184 30.3271 96.8066 30.3682 96.7832 30.4033C96.7598 30.4326 96.7217 30.459 96.6689 30.4824C96.6162 30.5059 96.543 30.5234 96.4492 30.5352C96.3555 30.5469 96.2354 30.5527 96.0889 30.5527C95.9482 30.5527 95.8311 30.5469 95.7373 30.5352C95.6436 30.5234 95.5674 30.5059 95.5088 30.4824C95.4561 30.459 95.418 30.4326 95.3945 30.4033C95.377 30.3682 95.3682 30.3271 95.3682 30.2803V22.3701C95.3682 22.3291 95.377 22.291 95.3945 22.2559C95.418 22.2207 95.4561 22.1914 95.5088 22.168C95.5674 22.1445 95.6436 22.127 95.7373 22.1152C95.8311 22.1035 95.9482 22.0977 96.0889 22.0977C96.2354 22.0977 96.3555 22.1035 96.4492 22.1152C96.543 22.127 96.6162 22.1445 96.6689 22.168C96.7217 22.1914 96.7598 22.2207 96.7832 22.2559C96.8066 22.291 96.8184 22.3291 96.8184 22.3701V30.2803ZM96.9854 19.6982C96.9854 20.0381 96.9209 20.2695 96.792 20.3926C96.6631 20.5156 96.4258 20.5771 96.0801 20.5771C95.7402 20.5771 95.5059 20.5186 95.377 20.4014C95.2539 20.2783 95.1924 20.0498 95.1924 19.7158C95.1924 19.376 95.2568 19.1445 95.3857 19.0215C95.5146 18.8984 95.752 18.8369 96.0977 18.8369C96.4375 18.8369 96.6689 18.8984 96.792 19.0215C96.9209 19.1387 96.9854 19.3643 96.9854 19.6982ZM105.985 22.3525C105.985 22.376 105.982 22.4023 105.977 22.4316C105.977 22.4551 105.974 22.4814 105.968 22.5107C105.962 22.54 105.953 22.5723 105.941 22.6074C105.936 22.6426 105.927 22.6807 105.915 22.7217L103.217 30.2363C103.193 30.3008 103.161 30.3535 103.12 30.3945C103.085 30.4355 103.029 30.4678 102.953 30.4912C102.877 30.5146 102.78 30.5293 102.663 30.5352C102.546 30.5469 102.399 30.5527 102.224 30.5527C102.048 30.5527 101.901 30.5469 101.784 30.5352C101.667 30.5234 101.57 30.5059 101.494 30.4824C101.424 30.459 101.368 30.4268 101.327 30.3857C101.286 30.3447 101.254 30.2949 101.23 30.2363L98.541 22.7217C98.5176 22.6514 98.4971 22.5898 98.4795 22.5371C98.4678 22.4844 98.459 22.4463 98.4531 22.4229C98.4531 22.3936 98.4531 22.3701 98.4531 22.3525C98.4531 22.3057 98.4648 22.2646 98.4883 22.2295C98.5117 22.1943 98.5498 22.168 98.6025 22.1504C98.6611 22.127 98.7344 22.1123 98.8223 22.1064C98.916 22.1006 99.0303 22.0977 99.165 22.0977C99.335 22.0977 99.4697 22.1035 99.5693 22.1152C99.6748 22.1211 99.7539 22.1357 99.8066 22.1592C99.8652 22.1826 99.9062 22.2119 99.9297 22.2471C99.959 22.2822 99.9854 22.3262 100.009 22.3789L102.241 28.9004L102.276 29.0059L102.303 28.9004L104.509 22.3789C104.521 22.3262 104.541 22.2822 104.57 22.2471C104.6 22.2119 104.641 22.1826 104.693 22.1592C104.752 22.1357 104.828 22.1211 104.922 22.1152C105.021 22.1035 105.15 22.0977 105.309 22.0977C105.443 22.0977 105.555 22.1006 105.643 22.1064C105.73 22.1123 105.798 22.127 105.845 22.1504C105.897 22.1738 105.933 22.2031 105.95 22.2383C105.974 22.2676 105.985 22.3057 105.985 22.3525ZM114.212 25.9824C114.212 26.2109 114.153 26.375 114.036 26.4746C113.925 26.5684 113.796 26.6152 113.649 26.6152H108.464C108.464 27.0547 108.508 27.4502 108.596 27.8018C108.684 28.1533 108.83 28.4551 109.035 28.707C109.24 28.959 109.507 29.1523 109.835 29.2871C110.163 29.4219 110.564 29.4893 111.039 29.4893C111.414 29.4893 111.748 29.46 112.041 29.4014C112.334 29.3369 112.586 29.2666 112.797 29.1904C113.014 29.1143 113.189 29.0469 113.324 28.9883C113.465 28.9238 113.57 28.8916 113.641 28.8916C113.682 28.8916 113.717 28.9033 113.746 28.9268C113.781 28.9443 113.808 28.9736 113.825 29.0146C113.843 29.0557 113.854 29.1143 113.86 29.1904C113.872 29.2607 113.878 29.3486 113.878 29.4541C113.878 29.5303 113.875 29.5977 113.869 29.6562C113.863 29.709 113.854 29.7588 113.843 29.8057C113.837 29.8467 113.822 29.8848 113.799 29.9199C113.781 29.9551 113.755 29.9902 113.72 30.0254C113.69 30.0547 113.597 30.1074 113.438 30.1836C113.28 30.2539 113.075 30.3242 112.823 30.3945C112.571 30.4648 112.278 30.5264 111.944 30.5791C111.616 30.6377 111.265 30.667 110.89 30.667C110.239 30.667 109.668 30.5762 109.176 30.3945C108.689 30.2129 108.279 29.9434 107.945 29.5859C107.611 29.2285 107.359 28.7803 107.189 28.2412C107.02 27.7021 106.935 27.0752 106.935 26.3604C106.935 25.6807 107.022 25.0713 107.198 24.5322C107.374 23.9873 107.626 23.5273 107.954 23.1523C108.288 22.7715 108.689 22.4814 109.158 22.2822C109.627 22.0771 110.151 21.9746 110.731 21.9746C111.353 21.9746 111.88 22.0742 112.313 22.2734C112.753 22.4727 113.113 22.7422 113.395 23.082C113.676 23.416 113.881 23.8115 114.01 24.2686C114.145 24.7197 114.212 25.2031 114.212 25.7188V25.9824ZM112.753 25.5518C112.771 24.79 112.601 24.1924 112.243 23.7588C111.892 23.3252 111.367 23.1084 110.67 23.1084C110.312 23.1084 109.999 23.1758 109.729 23.3105C109.46 23.4453 109.234 23.624 109.053 23.8467C108.871 24.0693 108.73 24.3301 108.631 24.6289C108.531 24.9219 108.476 25.2295 108.464 25.5518H112.753ZM121.05 22.8887C121.05 23.0176 121.047 23.126 121.041 23.2139C121.035 23.3018 121.023 23.3721 121.006 23.4248C120.988 23.4717 120.965 23.5098 120.936 23.5391C120.912 23.5625 120.877 23.5742 120.83 23.5742C120.783 23.5742 120.725 23.5625 120.654 23.5391C120.59 23.5098 120.514 23.4834 120.426 23.46C120.344 23.4307 120.25 23.4043 120.145 23.3809C120.039 23.3574 119.925 23.3457 119.802 23.3457C119.655 23.3457 119.512 23.375 119.371 23.4336C119.23 23.4922 119.081 23.5889 118.923 23.7236C118.771 23.8584 118.609 24.0371 118.439 24.2598C118.27 24.4824 118.082 24.7549 117.877 25.0771V30.2803C117.877 30.3271 117.865 30.3682 117.842 30.4033C117.818 30.4326 117.78 30.459 117.728 30.4824C117.675 30.5059 117.602 30.5234 117.508 30.5352C117.414 30.5469 117.294 30.5527 117.147 30.5527C117.007 30.5527 116.89 30.5469 116.796 30.5352C116.702 30.5234 116.626 30.5059 116.567 30.4824C116.515 30.459 116.477 30.4326 116.453 30.4033C116.436 30.3682 116.427 30.3271 116.427 30.2803V22.3701C116.427 22.3232 116.436 22.2852 116.453 22.2559C116.471 22.2207 116.506 22.1914 116.559 22.168C116.611 22.1387 116.679 22.1211 116.761 22.1152C116.843 22.1035 116.951 22.0977 117.086 22.0977C117.215 22.0977 117.32 22.1035 117.402 22.1152C117.49 22.1211 117.558 22.1387 117.604 22.168C117.651 22.1914 117.684 22.2207 117.701 22.2559C117.725 22.2852 117.736 22.3232 117.736 22.3701V23.5215C117.953 23.2051 118.155 22.9473 118.343 22.748C118.536 22.5488 118.718 22.3936 118.888 22.2822C119.058 22.165 119.225 22.0859 119.389 22.0449C119.559 21.998 119.729 21.9746 119.898 21.9746C119.975 21.9746 120.06 21.9805 120.153 21.9922C120.253 21.998 120.355 22.0127 120.461 22.0361C120.566 22.0596 120.66 22.0859 120.742 22.1152C120.83 22.1445 120.892 22.1738 120.927 22.2031C120.962 22.2324 120.985 22.2617 120.997 22.291C121.009 22.3145 121.018 22.3467 121.023 22.3877C121.035 22.4287 121.041 22.4902 121.041 22.5723C121.047 22.6484 121.05 22.7539 121.05 22.8887ZM127.352 28.127C127.352 28.5312 127.275 28.8916 127.123 29.208C126.977 29.5244 126.766 29.791 126.49 30.0078C126.215 30.2246 125.887 30.3887 125.506 30.5C125.125 30.6113 124.706 30.667 124.249 30.667C123.968 30.667 123.698 30.6436 123.44 30.5967C123.188 30.5557 122.96 30.5029 122.755 30.4385C122.556 30.3682 122.386 30.2979 122.245 30.2275C122.104 30.1514 122.002 30.084 121.938 30.0254C121.873 29.9668 121.826 29.8848 121.797 29.7793C121.768 29.6738 121.753 29.5303 121.753 29.3486C121.753 29.2373 121.759 29.1436 121.771 29.0674C121.782 28.9912 121.797 28.9297 121.814 28.8828C121.832 28.8359 121.855 28.8037 121.885 28.7861C121.92 28.7627 121.958 28.751 121.999 28.751C122.063 28.751 122.157 28.792 122.28 28.874C122.409 28.9502 122.564 29.0352 122.746 29.1289C122.934 29.2227 123.153 29.3105 123.405 29.3926C123.657 29.4688 123.947 29.5068 124.275 29.5068C124.521 29.5068 124.744 29.4805 124.943 29.4277C125.143 29.375 125.315 29.2988 125.462 29.1992C125.608 29.0938 125.72 28.9619 125.796 28.8037C125.878 28.6455 125.919 28.458 125.919 28.2412C125.919 28.0186 125.86 27.8311 125.743 27.6787C125.632 27.5264 125.482 27.3916 125.295 27.2744C125.107 27.1572 124.896 27.0547 124.662 26.9668C124.428 26.873 124.185 26.7764 123.933 26.6768C123.687 26.5771 123.443 26.4658 123.203 26.3428C122.969 26.2139 122.758 26.0586 122.57 25.877C122.383 25.6953 122.23 25.4785 122.113 25.2266C122.002 24.9746 121.946 24.6729 121.946 24.3213C121.946 24.0107 122.005 23.7148 122.122 23.4336C122.245 23.1465 122.427 22.8975 122.667 22.6865C122.907 22.4697 123.206 22.2969 123.563 22.168C123.927 22.0391 124.349 21.9746 124.829 21.9746C125.04 21.9746 125.251 21.9922 125.462 22.0273C125.673 22.0625 125.863 22.1064 126.033 22.1592C126.203 22.2119 126.347 22.2705 126.464 22.335C126.587 22.3936 126.678 22.4463 126.736 22.4932C126.801 22.54 126.842 22.5811 126.859 22.6162C126.883 22.6514 126.897 22.6924 126.903 22.7393C126.915 22.7803 126.924 22.833 126.93 22.8975C126.941 22.9619 126.947 23.041 126.947 23.1348C126.947 23.2344 126.941 23.3223 126.93 23.3984C126.924 23.4688 126.909 23.5273 126.886 23.5742C126.868 23.6211 126.845 23.6562 126.815 23.6797C126.786 23.6973 126.754 23.7061 126.719 23.7061C126.666 23.7061 126.59 23.6738 126.49 23.6094C126.391 23.5449 126.262 23.4775 126.104 23.4072C125.945 23.3311 125.758 23.2607 125.541 23.1963C125.33 23.1318 125.087 23.0996 124.812 23.0996C124.565 23.0996 124.349 23.1289 124.161 23.1875C123.974 23.2402 123.818 23.3193 123.695 23.4248C123.578 23.5244 123.487 23.6445 123.423 23.7852C123.364 23.9258 123.335 24.0781 123.335 24.2422C123.335 24.4707 123.394 24.6641 123.511 24.8223C123.628 24.9746 123.78 25.1094 123.968 25.2266C124.155 25.3438 124.369 25.4492 124.609 25.543C124.85 25.6367 125.093 25.7334 125.339 25.833C125.591 25.9326 125.837 26.0439 126.077 26.167C126.323 26.29 126.54 26.4395 126.728 26.6152C126.915 26.791 127.064 27.002 127.176 27.248C127.293 27.4941 127.352 27.7871 127.352 28.127ZM130.885 30.2803C130.885 30.3271 130.873 30.3682 130.85 30.4033C130.826 30.4326 130.788 30.459 130.735 30.4824C130.683 30.5059 130.609 30.5234 130.516 30.5352C130.422 30.5469 130.302 30.5527 130.155 30.5527C130.015 30.5527 129.897 30.5469 129.804 30.5352C129.71 30.5234 129.634 30.5059 129.575 30.4824C129.522 30.459 129.484 30.4326 129.461 30.4033C129.443 30.3682 129.435 30.3271 129.435 30.2803V22.3701C129.435 22.3291 129.443 22.291 129.461 22.2559C129.484 22.2207 129.522 22.1914 129.575 22.168C129.634 22.1445 129.71 22.127 129.804 22.1152C129.897 22.1035 130.015 22.0977 130.155 22.0977C130.302 22.0977 130.422 22.1035 130.516 22.1152C130.609 22.127 130.683 22.1445 130.735 22.168C130.788 22.1914 130.826 22.2207 130.85 22.2559C130.873 22.291 130.885 22.3291 130.885 22.3701V30.2803ZM131.052 19.6982C131.052 20.0381 130.987 20.2695 130.858 20.3926C130.729 20.5156 130.492 20.5771 130.146 20.5771C129.807 20.5771 129.572 20.5186 129.443 20.4014C129.32 20.2783 129.259 20.0498 129.259 19.7158C129.259 19.376 129.323 19.1445 129.452 19.0215C129.581 18.8984 129.818 18.8369 130.164 18.8369C130.504 18.8369 130.735 18.8984 130.858 19.0215C130.987 19.1387 131.052 19.3643 131.052 19.6982ZM140.447 22.1416C140.623 22.1416 140.743 22.1826 140.808 22.2646C140.872 22.3408 140.904 22.4551 140.904 22.6074V30.2803C140.904 30.3271 140.893 30.3682 140.869 30.4033C140.846 30.4326 140.805 30.459 140.746 30.4824C140.693 30.5059 140.62 30.5234 140.526 30.5352C140.433 30.5469 140.318 30.5527 140.184 30.5527C140.037 30.5527 139.917 30.5469 139.823 30.5352C139.729 30.5234 139.653 30.5059 139.595 30.4824C139.542 30.459 139.504 30.4326 139.48 30.4033C139.457 30.3682 139.445 30.3271 139.445 30.2803V23.3457H135.358V27.7578C135.358 28.3027 135.438 28.7158 135.596 28.9971C135.76 29.2725 136.05 29.4102 136.466 29.4102C136.601 29.4102 136.721 29.3984 136.826 29.375C136.932 29.3457 137.025 29.3164 137.107 29.2871C137.189 29.2578 137.26 29.2314 137.318 29.208C137.377 29.1787 137.43 29.1641 137.477 29.1641C137.506 29.1641 137.532 29.1729 137.556 29.1904C137.585 29.2021 137.605 29.2285 137.617 29.2695C137.635 29.3105 137.649 29.3662 137.661 29.4365C137.673 29.5068 137.679 29.5947 137.679 29.7002C137.679 29.8701 137.667 30.0049 137.644 30.1045C137.62 30.1982 137.585 30.2715 137.538 30.3242C137.491 30.3711 137.421 30.415 137.327 30.4561C137.233 30.4971 137.125 30.5293 137.002 30.5527C136.885 30.582 136.759 30.6055 136.624 30.623C136.489 30.6406 136.354 30.6494 136.22 30.6494C135.81 30.6494 135.458 30.5967 135.165 30.4912C134.872 30.3799 134.632 30.2158 134.444 29.999C134.257 29.7764 134.119 29.498 134.031 29.1641C133.949 28.8242 133.908 28.4258 133.908 27.9688V23.3457H132.801C132.713 23.3457 132.643 23.2988 132.59 23.2051C132.537 23.1113 132.511 22.959 132.511 22.748C132.511 22.6367 132.517 22.543 132.528 22.4668C132.546 22.3906 132.566 22.3291 132.59 22.2822C132.613 22.2295 132.643 22.1943 132.678 22.1768C132.719 22.1533 132.763 22.1416 132.81 22.1416H133.908V20.2607C133.908 20.2197 133.917 20.1816 133.935 20.1465C133.958 20.1113 133.996 20.082 134.049 20.0586C134.107 20.0293 134.184 20.0088 134.277 19.9971C134.371 19.9854 134.488 19.9795 134.629 19.9795C134.775 19.9795 134.896 19.9854 134.989 19.9971C135.083 20.0088 135.156 20.0293 135.209 20.0586C135.262 20.082 135.3 20.1113 135.323 20.1465C135.347 20.1816 135.358 20.2197 135.358 20.2607V22.1416H140.447ZM141.071 19.6982C141.071 20.0381 141.007 20.2695 140.878 20.3926C140.749 20.5156 140.512 20.5771 140.166 20.5771C139.826 20.5771 139.592 20.5186 139.463 20.4014C139.34 20.2783 139.278 20.0498 139.278 19.7158C139.278 19.376 139.343 19.1445 139.472 19.0215C139.601 18.8984 139.838 18.8369 140.184 18.8369C140.523 18.8369 140.755 18.8984 140.878 19.0215C141.007 19.1387 141.071 19.3643 141.071 19.6982ZM150.353 25.9824C150.353 26.2109 150.294 26.375 150.177 26.4746C150.065 26.5684 149.937 26.6152 149.79 26.6152H144.604C144.604 27.0547 144.648 27.4502 144.736 27.8018C144.824 28.1533 144.971 28.4551 145.176 28.707C145.381 28.959 145.647 29.1523 145.976 29.2871C146.304 29.4219 146.705 29.4893 147.18 29.4893C147.555 29.4893 147.889 29.46 148.182 29.4014C148.475 29.3369 148.727 29.2666 148.938 29.1904C149.154 29.1143 149.33 29.0469 149.465 28.9883C149.605 28.9238 149.711 28.8916 149.781 28.8916C149.822 28.8916 149.857 28.9033 149.887 28.9268C149.922 28.9443 149.948 28.9736 149.966 29.0146C149.983 29.0557 149.995 29.1143 150.001 29.1904C150.013 29.2607 150.019 29.3486 150.019 29.4541C150.019 29.5303 150.016 29.5977 150.01 29.6562C150.004 29.709 149.995 29.7588 149.983 29.8057C149.978 29.8467 149.963 29.8848 149.939 29.9199C149.922 29.9551 149.896 29.9902 149.86 30.0254C149.831 30.0547 149.737 30.1074 149.579 30.1836C149.421 30.2539 149.216 30.3242 148.964 30.3945C148.712 30.4648 148.419 30.5264 148.085 30.5791C147.757 30.6377 147.405 30.667 147.03 30.667C146.38 30.667 145.809 30.5762 145.316 30.3945C144.83 30.2129 144.42 29.9434 144.086 29.5859C143.752 29.2285 143.5 28.7803 143.33 28.2412C143.16 27.7021 143.075 27.0752 143.075 26.3604C143.075 25.6807 143.163 25.0713 143.339 24.5322C143.515 23.9873 143.767 23.5273 144.095 23.1523C144.429 22.7715 144.83 22.4814 145.299 22.2822C145.768 22.0771 146.292 21.9746 146.872 21.9746C147.493 21.9746 148.021 22.0742 148.454 22.2734C148.894 22.4727 149.254 22.7422 149.535 23.082C149.816 23.416 150.021 23.8115 150.15 24.2686C150.285 24.7197 150.353 25.2031 150.353 25.7188V25.9824ZM148.894 25.5518C148.911 24.79 148.741 24.1924 148.384 23.7588C148.032 23.3252 147.508 23.1084 146.811 23.1084C146.453 23.1084 146.14 23.1758 145.87 23.3105C145.601 23.4453 145.375 23.624 145.193 23.8467C145.012 24.0693 144.871 24.3301 144.771 24.6289C144.672 24.9219 144.616 25.2295 144.604 25.5518H148.894ZM157.533 28.127C157.533 28.5312 157.457 28.8916 157.305 29.208C157.158 29.5244 156.947 29.791 156.672 30.0078C156.396 30.2246 156.068 30.3887 155.688 30.5C155.307 30.6113 154.888 30.667 154.431 30.667C154.149 30.667 153.88 30.6436 153.622 30.5967C153.37 30.5557 153.142 30.5029 152.937 30.4385C152.737 30.3682 152.567 30.2979 152.427 30.2275C152.286 30.1514 152.184 30.084 152.119 30.0254C152.055 29.9668 152.008 29.8848 151.979 29.7793C151.949 29.6738 151.935 29.5303 151.935 29.3486C151.935 29.2373 151.94 29.1436 151.952 29.0674C151.964 28.9912 151.979 28.9297 151.996 28.8828C152.014 28.8359 152.037 28.8037 152.066 28.7861C152.102 28.7627 152.14 28.751 152.181 28.751C152.245 28.751 152.339 28.792 152.462 28.874C152.591 28.9502 152.746 29.0352 152.928 29.1289C153.115 29.2227 153.335 29.3105 153.587 29.3926C153.839 29.4688 154.129 29.5068 154.457 29.5068C154.703 29.5068 154.926 29.4805 155.125 29.4277C155.324 29.375 155.497 29.2988 155.644 29.1992C155.79 29.0938 155.901 28.9619 155.978 28.8037C156.06 28.6455 156.101 28.458 156.101 28.2412C156.101 28.0186 156.042 27.8311 155.925 27.6787C155.813 27.5264 155.664 27.3916 155.477 27.2744C155.289 27.1572 155.078 27.0547 154.844 26.9668C154.609 26.873 154.366 26.7764 154.114 26.6768C153.868 26.5771 153.625 26.4658 153.385 26.3428C153.15 26.2139 152.939 26.0586 152.752 25.877C152.564 25.6953 152.412 25.4785 152.295 25.2266C152.184 24.9746 152.128 24.6729 152.128 24.3213C152.128 24.0107 152.187 23.7148 152.304 23.4336C152.427 23.1465 152.608 22.8975 152.849 22.6865C153.089 22.4697 153.388 22.2969 153.745 22.168C154.108 22.0391 154.53 21.9746 155.011 21.9746C155.222 21.9746 155.433 21.9922 155.644 22.0273C155.854 22.0625 156.045 22.1064 156.215 22.1592C156.385 22.2119 156.528 22.2705 156.646 22.335C156.769 22.3936 156.859 22.4463 156.918 22.4932C156.982 22.54 157.023 22.5811 157.041 22.6162C157.064 22.6514 157.079 22.6924 157.085 22.7393C157.097 22.7803 157.105 22.833 157.111 22.8975C157.123 22.9619 157.129 23.041 157.129 23.1348C157.129 23.2344 157.123 23.3223 157.111 23.3984C157.105 23.4688 157.091 23.5273 157.067 23.5742C157.05 23.6211 157.026 23.6562 156.997 23.6797C156.968 23.6973 156.936 23.7061 156.9 23.7061C156.848 23.7061 156.771 23.6738 156.672 23.6094C156.572 23.5449 156.443 23.4775 156.285 23.4072C156.127 23.3311 155.939 23.2607 155.723 23.1963C155.512 23.1318 155.269 23.0996 154.993 23.0996C154.747 23.0996 154.53 23.1289 154.343 23.1875C154.155 23.2402 154 23.3193 153.877 23.4248C153.76 23.5244 153.669 23.6445 153.604 23.7852C153.546 23.9258 153.517 24.0781 153.517 24.2422C153.517 24.4707 153.575 24.6641 153.692 24.8223C153.81 24.9746 153.962 25.1094 154.149 25.2266C154.337 25.3438 154.551 25.4492 154.791 25.543C155.031 25.6367 155.274 25.7334 155.521 25.833C155.772 25.9326 156.019 26.0439 156.259 26.167C156.505 26.29 156.722 26.4395 156.909 26.6152C157.097 26.791 157.246 27.002 157.357 27.248C157.475 27.4941 157.533 27.7871 157.533 28.127Z" fill="#A09D9D"/>
<line x1="64.4517" y1="37.5391" x2="64.4517" y2="13.4622" stroke="#FF0000"/>
</g>
<defs>
<filter id="filter0_b_1341_46" x="-99" y="-99" width="382" height="250" filterUnits="userSpaceOnUse" color-interpolation-filters="sRGB">
<feFlood flood-opacity="0" result="BackgroundImageFix"/>
<feGaussianBlur in="BackgroundImageFix" stdDeviation="49.5"/>
<feComposite in2="SourceAlpha" operator="in" result="effect1_backgroundBlur_1341_46"/>
<feBlend mode="normal" in="SourceGraphic" in2="effect1_backgroundBlur_1341_46" result="shape"/>
</filter>
</defs>
</svg>
