<svg width="1195" height="367" viewBox="0 0 1195 367" fill="none" xmlns="http://www.w3.org/2000/svg">
<rect width="1195" height="367" fill="url(#paint0_linear_1309_8111)"/>
<path d="M57.3113 85.4082V54.8627H63.7694V67.4657H76.8795V54.8627H83.3227V85.4082H76.8795V72.7903H63.7694V85.4082H57.3113ZM98.9683 85.8556C96.6118 85.8556 94.5833 85.3784 92.8831 84.4238C91.1927 83.4593 89.8902 82.0971 88.9754 80.3372C88.0606 78.5673 87.6032 76.4743 87.6032 74.0581C87.6032 71.7015 88.0606 69.6333 88.9754 67.8535C89.8902 66.0737 91.1778 64.6866 92.8383 63.6923C94.5088 62.698 96.4676 62.2008 98.7147 62.2008C100.226 62.2008 101.633 62.4444 102.936 62.9316C104.248 63.4089 105.392 64.1298 106.366 65.0943C107.35 66.0588 108.116 67.2718 108.663 68.7335C109.21 70.1852 109.483 71.8855 109.483 73.8343V75.5794H90.1387V71.6419H103.502C103.502 70.7271 103.304 69.9167 102.906 69.2108C102.508 68.5048 101.956 67.9529 101.25 67.5552C100.554 67.1475 99.7439 66.9437 98.8191 66.9437C97.8546 66.9437 96.9995 67.1674 96.2538 67.6149C95.518 68.0524 94.9413 68.644 94.5237 69.3897C94.1061 70.1255 93.8923 70.9458 93.8823 71.8507V75.5943C93.8823 76.7278 94.0912 77.7072 94.5088 78.5325C94.9363 79.3578 95.5379 79.9941 96.3135 80.4416C97.089 80.889 98.0088 81.1127 99.0727 81.1127C99.7787 81.1127 100.425 81.0133 101.012 80.8145C101.598 80.6156 102.1 80.3173 102.518 79.9196C102.936 79.5218 103.254 79.0346 103.473 78.4579L109.349 78.8457C109.051 80.2576 108.439 81.4906 107.514 82.5446C106.6 83.5886 105.416 84.4039 103.965 84.9906C102.523 85.5673 100.857 85.8556 98.9683 85.8556ZM116.937 93.9991C116.131 93.9991 115.376 93.9345 114.67 93.8052C113.974 93.6859 113.397 93.5318 112.94 93.3429L114.372 88.6C115.117 88.8287 115.788 88.9529 116.385 88.9728C116.992 88.9927 117.514 88.8535 117.951 88.5552C118.399 88.2569 118.761 87.7498 119.04 87.0339L119.413 86.0645L111.195 62.4991H117.876L122.619 79.323H122.858L127.646 62.4991H134.372L125.468 87.8841C125.041 89.117 124.459 90.1909 123.723 91.1056C122.997 92.0304 122.077 92.7413 120.964 93.2385C119.85 93.7456 118.508 93.9991 116.937 93.9991ZM143.094 81.2321L142.93 82.8727C142.8 84.1852 142.552 85.4927 142.184 86.7953C141.826 88.1078 141.448 89.296 141.05 90.3599C140.663 91.4238 140.349 92.2591 140.111 92.8656H135.994C136.143 92.2789 136.347 91.4586 136.606 90.4047C136.864 89.3606 137.108 88.1873 137.337 86.8848C137.565 85.5822 137.709 84.2548 137.769 82.9025L137.844 81.2321H143.094Z" fill="white"/>
<path d="M62.0542 113.955V144.5H58.3554V113.955H62.0542ZM87.5473 145.037C86.0956 145.037 84.7781 144.763 83.5949 144.217C82.4116 143.66 81.472 142.859 80.776 141.815C80.08 140.761 79.732 139.489 79.732 137.997C79.732 136.685 79.9905 135.621 80.5075 134.805C81.0246 133.98 81.7156 133.334 82.5807 132.866C83.4457 132.399 84.4003 132.051 85.4443 131.822C86.4983 131.584 87.5572 131.395 88.6212 131.256C90.0132 131.077 91.1418 130.942 92.0068 130.853C92.8818 130.754 93.5182 130.589 93.9159 130.361C94.3236 130.132 94.5274 129.734 94.5274 129.168V129.048C94.5274 127.577 94.1247 126.433 93.3193 125.618C92.5239 124.803 91.3158 124.395 89.695 124.395C88.0146 124.395 86.6972 124.763 85.7426 125.499C84.7881 126.234 84.1169 127.02 83.7291 127.855L80.3882 126.662C80.9848 125.27 81.7803 124.186 82.7746 123.411C83.7788 122.625 84.8726 122.078 86.0558 121.77C87.249 121.452 88.4223 121.293 89.5757 121.293C90.3115 121.293 91.1567 121.382 92.1112 121.561C93.0757 121.73 94.0054 122.083 94.9003 122.62C95.8051 123.157 96.5558 123.967 97.1524 125.051C97.749 126.135 98.0473 127.587 98.0473 129.406V144.5H94.5274V141.398H94.3484C94.1098 141.895 93.7121 142.427 93.1553 142.994C92.5984 143.56 91.8577 144.043 90.933 144.44C90.0082 144.838 88.8797 145.037 87.5473 145.037ZM88.0842 141.875C89.4763 141.875 90.6496 141.602 91.6041 141.055C92.5686 140.508 93.2945 139.802 93.7817 138.937C94.2788 138.072 94.5274 137.162 94.5274 136.207V132.986C94.3783 133.165 94.0501 133.329 93.543 133.478C93.0459 133.617 92.4692 133.741 91.8129 133.851C91.1666 133.95 90.5352 134.04 89.9187 134.119C89.3122 134.189 88.82 134.249 88.4422 134.298C87.5274 134.418 86.6723 134.612 85.8768 134.88C85.0913 135.138 84.455 135.531 83.9678 136.058C83.4905 136.575 83.2518 137.281 83.2518 138.176C83.2518 139.399 83.7043 140.324 84.6091 140.95C85.5239 141.567 86.6822 141.875 88.0842 141.875ZM104.472 144.5V121.591H107.872V125.17H108.171C108.648 123.947 109.419 122.998 110.482 122.322C111.546 121.636 112.824 121.293 114.316 121.293C115.827 121.293 117.085 121.636 118.089 122.322C119.103 122.998 119.894 123.947 120.46 125.17H120.699C121.286 123.987 122.166 123.048 123.339 122.352C124.512 121.646 125.919 121.293 127.56 121.293C129.608 121.293 131.284 121.934 132.586 123.217C133.889 124.489 134.54 126.473 134.54 129.168V144.5H131.02V129.168C131.02 127.477 130.558 126.269 129.633 125.543C128.708 124.817 127.62 124.455 126.367 124.455C124.756 124.455 123.508 124.942 122.623 125.916C121.738 126.881 121.296 128.104 121.296 129.585V144.5H117.716V128.81C117.716 127.507 117.294 126.458 116.448 125.663C115.603 124.857 114.514 124.455 113.182 124.455C112.267 124.455 111.412 124.698 110.617 125.185C109.831 125.673 109.195 126.349 108.708 127.214C108.23 128.069 107.992 129.058 107.992 130.182V144.5H104.472Z" fill="white"/>
<path d="M176.294 120.383C176.05 119.536 175.708 118.788 175.267 118.138C174.826 117.477 174.287 116.92 173.649 116.468C173.023 116.004 172.303 115.65 171.491 115.406C170.691 115.163 169.804 115.041 168.829 115.041C167.008 115.041 165.407 115.493 164.027 116.398C162.658 117.303 161.59 118.62 160.825 120.348C160.059 122.065 159.676 124.165 159.676 126.647C159.676 129.129 160.053 131.241 160.807 132.981C161.561 134.721 162.629 136.049 164.009 136.966C165.39 137.87 167.019 138.323 168.899 138.323C170.604 138.323 172.06 138.021 173.266 137.418C174.484 136.803 175.412 135.939 176.05 134.825C176.7 133.712 177.025 132.395 177.025 130.875L178.556 131.102H169.368V125.429H184.281V129.918C184.281 133.05 183.62 135.742 182.297 137.992C180.975 140.231 179.153 141.96 176.833 143.178C174.513 144.384 171.857 144.987 168.864 144.987C165.523 144.987 162.588 144.251 160.059 142.777C157.53 141.292 155.558 139.187 154.143 136.461C152.739 133.723 152.038 130.475 152.038 126.717C152.038 123.828 152.455 121.253 153.29 118.991C154.137 116.717 155.32 114.791 156.84 113.214C158.36 111.636 160.129 110.435 162.147 109.612C164.166 108.788 166.352 108.376 168.707 108.376C170.726 108.376 172.605 108.672 174.345 109.264C176.085 109.844 177.628 110.667 178.974 111.735C180.331 112.802 181.439 114.072 182.297 115.545C183.156 117.007 183.707 118.62 183.95 120.383H176.294ZM197.423 145.005C195.717 145.005 194.198 144.709 192.864 144.117C191.53 143.514 190.474 142.627 189.697 141.455C188.931 140.272 188.548 138.798 188.548 137.035C188.548 135.55 188.821 134.303 189.366 133.294C189.911 132.285 190.654 131.473 191.593 130.858C192.533 130.243 193.6 129.779 194.795 129.466C196.002 129.153 197.266 128.932 198.588 128.805C200.143 128.642 201.396 128.491 202.347 128.352C203.298 128.201 203.988 127.981 204.418 127.691C204.847 127.401 205.061 126.972 205.061 126.403V126.299C205.061 125.197 204.713 124.344 204.017 123.741C203.333 123.138 202.359 122.836 201.094 122.836C199.76 122.836 198.699 123.132 197.91 123.724C197.121 124.304 196.599 125.035 196.344 125.916L189.488 125.359C189.836 123.735 190.52 122.332 191.541 121.148C192.562 119.954 193.879 119.037 195.491 118.399C197.115 117.75 198.994 117.425 201.129 117.425C202.614 117.425 204.035 117.599 205.392 117.947C206.761 118.295 207.973 118.834 209.029 119.565C210.096 120.296 210.937 121.235 211.552 122.384C212.167 123.521 212.474 124.884 212.474 126.473V144.5H205.444V140.794H205.235C204.806 141.629 204.232 142.366 203.513 143.004C202.794 143.63 201.929 144.123 200.92 144.483C199.911 144.831 198.745 145.005 197.423 145.005ZM199.545 139.889C200.636 139.889 201.599 139.674 202.434 139.245C203.269 138.804 203.925 138.213 204.4 137.47C204.876 136.728 205.114 135.887 205.114 134.947V132.111C204.882 132.262 204.563 132.401 204.157 132.528C203.762 132.644 203.316 132.755 202.817 132.859C202.318 132.952 201.819 133.039 201.32 133.12C200.821 133.19 200.369 133.253 199.963 133.311C199.093 133.439 198.333 133.642 197.684 133.92C197.034 134.199 196.529 134.576 196.17 135.051C195.81 135.516 195.63 136.096 195.63 136.792C195.63 137.801 195.996 138.572 196.727 139.106C197.469 139.628 198.409 139.889 199.545 139.889ZM235.365 133.12V117.773H242.777V144.5H235.66V139.645H235.382C234.779 141.211 233.775 142.47 232.372 143.421C230.98 144.372 229.28 144.848 227.273 144.848C225.487 144.848 223.915 144.442 222.558 143.63C221.2 142.818 220.139 141.664 219.373 140.167C218.619 138.671 218.237 136.879 218.225 134.79V117.773H225.638V133.468C225.649 135.046 226.073 136.293 226.908 137.209C227.743 138.126 228.862 138.584 230.266 138.584C231.159 138.584 231.995 138.381 232.772 137.975C233.549 137.557 234.175 136.942 234.651 136.13C235.138 135.318 235.376 134.315 235.365 133.12ZM248.706 144.5V117.773H255.893V122.436H256.171C256.658 120.777 257.476 119.524 258.625 118.678C259.773 117.819 261.096 117.39 262.592 117.39C262.963 117.39 263.363 117.413 263.793 117.46C264.222 117.506 264.599 117.57 264.924 117.651V124.228C264.576 124.124 264.094 124.031 263.479 123.95C262.865 123.869 262.302 123.828 261.792 123.828C260.701 123.828 259.727 124.066 258.868 124.542C258.021 125.006 257.349 125.655 256.85 126.49C256.363 127.326 256.119 128.288 256.119 129.379V144.5H248.706ZM275.612 145.005C273.907 145.005 272.387 144.709 271.053 144.117C269.719 143.514 268.663 142.627 267.886 141.455C267.121 140.272 266.738 138.798 266.738 137.035C266.738 135.55 267.01 134.303 267.556 133.294C268.101 132.285 268.843 131.473 269.783 130.858C270.722 130.243 271.79 129.779 272.985 129.466C274.191 129.153 275.455 128.932 276.778 128.805C278.332 128.642 279.585 128.491 280.536 128.352C281.488 128.201 282.178 127.981 282.607 127.691C283.036 127.401 283.251 126.972 283.251 126.403V126.299C283.251 125.197 282.903 124.344 282.207 123.741C281.522 123.138 280.548 122.836 279.284 122.836C277.949 122.836 276.888 123.132 276.099 123.724C275.31 124.304 274.788 125.035 274.533 125.916L267.677 125.359C268.025 123.735 268.71 122.332 269.731 121.148C270.751 119.954 272.068 119.037 273.681 118.399C275.305 117.75 277.184 117.425 279.318 117.425C280.803 117.425 282.224 117.599 283.581 117.947C284.95 118.295 286.163 118.834 287.218 119.565C288.285 120.296 289.126 121.235 289.741 122.384C290.356 123.521 290.664 124.884 290.664 126.473V144.5H283.634V140.794H283.425C282.996 141.629 282.421 142.366 281.702 143.004C280.983 143.63 280.119 144.123 279.11 144.483C278.1 144.831 276.934 145.005 275.612 145.005ZM277.735 139.889C278.825 139.889 279.788 139.674 280.623 139.245C281.459 138.804 282.114 138.213 282.59 137.47C283.065 136.728 283.303 135.887 283.303 134.947V132.111C283.071 132.262 282.752 132.401 282.346 132.528C281.952 132.644 281.505 132.755 281.006 132.859C280.507 132.952 280.009 133.039 279.51 133.12C279.011 133.19 278.559 133.253 278.152 133.311C277.282 133.439 276.523 133.642 275.873 133.92C275.223 134.199 274.719 134.576 274.359 135.051C274 135.516 273.82 136.096 273.82 136.792C273.82 137.801 274.185 138.572 274.916 139.106C275.658 139.628 276.598 139.889 277.735 139.889ZM320.375 117.773L311.031 144.5H302.679L293.334 117.773H301.165L306.716 136.896H306.994L312.527 117.773H320.375ZM365.456 108.864V144.5H358.948L343.444 122.071H343.183V144.5H335.648V108.864H342.261L357.643 131.276H357.956V108.864H365.456ZM379.163 145.005C377.458 145.005 375.938 144.709 374.604 144.117C373.27 143.514 372.214 142.627 371.437 141.455C370.671 140.272 370.289 138.798 370.289 137.035C370.289 135.55 370.561 134.303 371.106 133.294C371.652 132.285 372.394 131.473 373.334 130.858C374.273 130.243 375.34 129.779 376.535 129.466C377.742 129.153 379.006 128.932 380.329 128.805C381.883 128.642 383.136 128.491 384.087 128.352C385.038 128.201 385.729 127.981 386.158 127.691C386.587 127.401 386.802 126.972 386.802 126.403V126.299C386.802 125.197 386.454 124.344 385.758 123.741C385.073 123.138 384.099 122.836 382.834 122.836C381.5 122.836 380.439 123.132 379.65 123.724C378.861 124.304 378.339 125.035 378.084 125.916L371.228 125.359C371.576 123.735 372.261 122.332 373.281 121.148C374.302 119.954 375.619 119.037 377.231 118.399C378.855 117.75 380.735 117.425 382.869 117.425C384.354 117.425 385.775 117.599 387.132 117.947C388.501 118.295 389.713 118.834 390.769 119.565C391.836 120.296 392.677 121.235 393.292 122.384C393.907 123.521 394.214 124.884 394.214 126.473V144.5H387.184V140.794H386.976C386.546 141.629 385.972 142.366 385.253 143.004C384.534 143.63 383.67 144.123 382.66 144.483C381.651 144.831 380.485 145.005 379.163 145.005ZM381.286 139.889C382.376 139.889 383.339 139.674 384.174 139.245C385.009 138.804 385.665 138.213 386.14 137.47C386.616 136.728 386.854 135.887 386.854 134.947V132.111C386.622 132.262 386.303 132.401 385.897 132.528C385.502 132.644 385.056 132.755 384.557 132.859C384.058 132.952 383.559 133.039 383.061 133.12C382.562 133.19 382.109 133.253 381.703 133.311C380.833 133.439 380.073 133.642 379.424 133.92C378.774 134.199 378.27 134.576 377.91 135.051C377.55 135.516 377.371 136.096 377.371 136.792C377.371 137.801 377.736 138.572 378.467 139.106C379.209 139.628 380.149 139.889 381.286 139.889ZM399.965 144.5V117.773H407.152V122.436H407.43C407.917 120.777 408.735 119.524 409.884 118.678C411.032 117.819 412.354 117.39 413.851 117.39C414.222 117.39 414.622 117.413 415.051 117.46C415.481 117.506 415.858 117.57 416.183 117.651V124.228C415.834 124.124 415.353 124.031 414.738 123.95C414.123 123.869 413.561 123.828 413.05 123.828C411.96 123.828 410.986 124.066 410.127 124.542C409.28 125.006 408.607 125.655 408.109 126.49C407.621 127.326 407.378 128.288 407.378 129.379V144.5H399.965ZM427.428 129.048V144.5H420.015V117.773H427.08V122.488H427.393C427.984 120.934 428.976 119.704 430.368 118.799C431.76 117.883 433.448 117.425 435.432 117.425C437.288 117.425 438.906 117.831 440.287 118.643C441.667 119.455 442.74 120.615 443.506 122.123C444.271 123.619 444.654 125.406 444.654 127.482V144.5H437.242V128.805C437.253 127.169 436.836 125.893 435.989 124.977C435.142 124.049 433.976 123.585 432.491 123.585C431.494 123.585 430.612 123.799 429.846 124.228C429.092 124.658 428.501 125.284 428.071 126.108C427.654 126.92 427.439 127.9 427.428 129.048ZM458.118 145.005C456.413 145.005 454.893 144.709 453.559 144.117C452.225 143.514 451.169 142.627 450.392 141.455C449.626 140.272 449.244 138.798 449.244 137.035C449.244 135.55 449.516 134.303 450.061 133.294C450.607 132.285 451.349 131.473 452.289 130.858C453.228 130.243 454.296 129.779 455.49 129.466C456.697 129.153 457.961 128.932 459.284 128.805C460.838 128.642 462.091 128.491 463.042 128.352C463.993 128.201 464.684 127.981 465.113 127.691C465.542 127.401 465.757 126.972 465.757 126.403V126.299C465.757 125.197 465.409 124.344 464.713 123.741C464.028 123.138 463.054 122.836 461.789 122.836C460.455 122.836 459.394 123.132 458.605 123.724C457.816 124.304 457.294 125.035 457.039 125.916L450.183 125.359C450.531 123.735 451.216 122.332 452.236 121.148C453.257 119.954 454.574 119.037 456.186 118.399C457.81 117.75 459.69 117.425 461.824 117.425C463.309 117.425 464.73 117.599 466.087 117.947C467.456 118.295 468.668 118.834 469.724 119.565C470.791 120.296 471.632 121.235 472.247 122.384C472.862 123.521 473.169 124.884 473.169 126.473V144.5H466.14V140.794H465.931C465.502 141.629 464.927 142.366 464.208 143.004C463.489 143.63 462.625 144.123 461.615 144.483C460.606 144.831 459.44 145.005 458.118 145.005ZM460.241 139.889C461.331 139.889 462.294 139.674 463.129 139.245C463.964 138.804 464.62 138.213 465.096 137.47C465.571 136.728 465.809 135.887 465.809 134.947V132.111C465.577 132.262 465.258 132.401 464.852 132.528C464.457 132.644 464.011 132.755 463.512 132.859C463.013 132.952 462.514 133.039 462.016 133.12C461.517 133.19 461.064 133.253 460.658 133.311C459.788 133.439 459.029 133.642 458.379 133.92C457.729 134.199 457.225 134.576 456.865 135.051C456.505 135.516 456.326 136.096 456.326 136.792C456.326 137.801 456.691 138.572 457.422 139.106C458.164 139.628 459.104 139.889 460.241 139.889ZM484.193 144.5L476.919 117.773H484.419L488.56 135.73H488.804L493.119 117.773H500.48L504.865 135.626H505.091L509.162 117.773H516.645L509.389 144.5H501.541L496.947 127.691H496.617L492.023 144.5H484.193ZM528.22 145.005C526.515 145.005 524.996 144.709 523.661 144.117C522.327 143.514 521.272 142.627 520.495 141.455C519.729 140.272 519.346 138.798 519.346 137.035C519.346 135.55 519.619 134.303 520.164 133.294C520.709 132.285 521.452 131.473 522.391 130.858C523.331 130.243 524.398 129.779 525.593 129.466C526.799 129.153 528.064 128.932 529.386 128.805C530.941 128.642 532.194 128.491 533.145 128.352C534.096 128.201 534.786 127.981 535.215 127.691C535.645 127.401 535.859 126.972 535.859 126.403V126.299C535.859 125.197 535.511 124.344 534.815 123.741C534.131 123.138 533.156 122.836 531.892 122.836C530.558 122.836 529.496 123.132 528.708 123.724C527.919 124.304 527.397 125.035 527.142 125.916L520.286 125.359C520.634 123.735 521.318 122.332 522.339 121.148C523.36 119.954 524.676 119.037 526.289 118.399C527.913 117.75 529.792 117.425 531.927 117.425C533.412 117.425 534.833 117.599 536.19 117.947C537.559 118.295 538.771 118.834 539.827 119.565C540.894 120.296 541.735 121.235 542.35 122.384C542.964 123.521 543.272 124.884 543.272 126.473V144.5H536.242V140.794H536.033C535.604 141.629 535.03 142.366 534.311 143.004C533.591 143.63 532.727 144.123 531.718 144.483C530.709 144.831 529.543 145.005 528.22 145.005ZM530.343 139.889C531.434 139.889 532.397 139.674 533.232 139.245C534.067 138.804 534.722 138.213 535.198 137.47C535.674 136.728 535.911 135.887 535.911 134.947V132.111C535.679 132.262 535.36 132.401 534.954 132.528C534.56 132.644 534.113 132.755 533.615 132.859C533.116 132.952 532.617 133.039 532.118 133.12C531.619 133.19 531.167 133.253 530.761 133.311C529.891 133.439 529.131 133.642 528.481 133.92C527.832 134.199 527.327 134.576 526.968 135.051C526.608 135.516 526.428 136.096 526.428 136.792C526.428 137.801 526.794 138.572 527.524 139.106C528.267 139.628 529.206 139.889 530.343 139.889ZM549.023 144.5V117.773H556.209V122.436H556.488C556.975 120.777 557.793 119.524 558.941 118.678C560.09 117.819 561.412 117.39 562.908 117.39C563.28 117.39 563.68 117.413 564.109 117.46C564.538 117.506 564.915 117.57 565.24 117.651V124.228C564.892 124.124 564.411 124.031 563.796 123.95C563.181 123.869 562.618 123.828 562.108 123.828C561.018 123.828 560.043 124.066 559.185 124.542C558.338 125.006 557.665 125.655 557.166 126.49C556.679 127.326 556.435 128.288 556.435 129.379V144.5H549.023ZM580.009 145.022C577.26 145.022 574.893 144.465 572.909 143.352C570.937 142.226 569.418 140.637 568.35 138.584C567.283 136.519 566.75 134.077 566.75 131.258C566.75 128.509 567.283 126.096 568.35 124.02C569.418 121.943 570.92 120.325 572.857 119.165C574.806 118.005 577.091 117.425 579.713 117.425C581.476 117.425 583.118 117.709 584.637 118.277C586.169 118.834 587.503 119.675 588.64 120.8C589.788 121.926 590.681 123.341 591.319 125.046C591.957 126.74 592.276 128.723 592.276 130.997V133.033H569.708V128.439H585.299C585.299 127.372 585.067 126.427 584.603 125.603C584.139 124.779 583.495 124.136 582.671 123.672C581.859 123.196 580.914 122.958 579.835 122.958C578.71 122.958 577.712 123.219 576.842 123.741C575.984 124.252 575.311 124.942 574.823 125.812C574.336 126.67 574.087 127.627 574.075 128.683V133.05C574.075 134.373 574.319 135.516 574.806 136.478C575.305 137.441 576.007 138.184 576.912 138.706C577.816 139.228 578.889 139.489 580.131 139.489C580.954 139.489 581.708 139.373 582.393 139.141C583.077 138.909 583.663 138.561 584.15 138.097C584.637 137.633 585.009 137.064 585.264 136.391L592.12 136.844C591.772 138.491 591.058 139.929 589.979 141.159C588.912 142.377 587.532 143.328 585.838 144.013C584.156 144.686 582.213 145.022 580.009 145.022Z" fill="#FAFF02"/>
<line x1="807.219" y1="19.6738" x2="1182.31" y2="19.6738" stroke="#EBFF00" stroke-width="7" stroke-dasharray="7 11"/>
<path d="M807.219 17.6035H1182.31" stroke="#EBFF00" stroke-width="7" stroke-linecap="round" stroke-dasharray="7 11"/>
<path d="M807.219 47.2637H1182.31" stroke="#EBFF00" stroke-width="7" stroke-linecap="round" stroke-dasharray="7 11"/>
<path d="M807.219 76.9238H1182.31" stroke="#EBFF00" stroke-width="7" stroke-linecap="round" stroke-dasharray="7 11"/>
<path d="M807.219 106.586H1182.31" stroke="#EBFF00" stroke-width="7" stroke-linecap="round" stroke-dasharray="7 11"/>
<path d="M807.219 136.246H1182.31" stroke="#EBFF00" stroke-width="7" stroke-linecap="round" stroke-dasharray="7 11"/>
<path d="M807.219 165.904H1182.31" stroke="#EBFF00" stroke-width="7" stroke-linecap="round" stroke-dasharray="7 11"/>
<path d="M807.219 195.564H1182.31" stroke="#EBFF00" stroke-width="7" stroke-linecap="round" stroke-dasharray="7 11"/>
<path d="M807.219 225.227H1182.31" stroke="#EBFF00" stroke-width="7" stroke-linecap="round" stroke-dasharray="7 11"/>
<path d="M807.219 254.887H1182.31" stroke="#EBFF00" stroke-width="7" stroke-linecap="round" stroke-dasharray="7 11"/>
<path d="M807.219 284.547H1182.31" stroke="#EBFF00" stroke-width="7" stroke-linecap="round" stroke-dasharray="7 11"/>
<path d="M1044.17 79.8597C1044.18 79.8568 1044.19 79.8536 1044.21 79.8501L1045.05 94.8621C1043.88 95.0542 1042.3 95.4491 1040.86 96.0927C1039.26 96.8117 1037.67 97.9104 1037.23 99.5258C1037.17 99.7195 1037.12 99.8998 1037.07 100.068V92.5686V89.4354V88.9354H1036.57H1034.98V78.964V78.7171L1034.78 78.567L1020.89 67.9306L1020.86 67.9072L1020.82 67.8887C1018.25 66.487 1013.87 64.8145 1009.04 64.3259C1004.27 63.8445 999.012 64.509 994.618 67.7811C987.85 65.9749 982.551 66.1192 978.392 67.6202C974.177 69.1409 971.19 72.0331 969.047 75.5718C967.318 78.4283 966.801 81.108 966.637 83.2611C966.572 84.1269 966.563 84.9137 966.556 85.5792C966.554 85.7359 966.552 85.8858 966.55 86.0285C966.538 86.7933 966.504 87.2859 966.398 87.5803L965.015 90.1908L964.976 90.2634L964.963 90.3444L963.284 100.644H962.821L962.018 95.8662L961.974 95.6059L961.734 95.4952L957.876 93.7136L956.691 85.0797L956.687 85.0506L956.679 85.0222C956.335 83.697 955.882 81.4834 955.644 79.1725C955.405 76.8456 955.393 74.4896 955.888 72.8412C956.392 71.1614 957.851 68.4294 959.508 65.6549C961.139 62.9223 962.928 60.2022 964.089 58.5154C965.904 56.8373 969.15 54.315 973.015 52.1845C976.914 50.0348 981.397 48.3108 985.649 48.2145L985.67 48.214L985.691 48.2119C991.114 47.6387 997.375 47.7053 1002.47 47.9171C1005.01 48.0229 1007.26 48.1647 1008.96 48.2801C1009.39 48.3094 1009.79 48.3373 1010.15 48.3624C1011.19 48.4353 1011.92 48.4859 1012.2 48.4859C1012.53 48.4858 1013.01 48.5585 1013.6 48.6838C1014.14 48.7996 1014.76 48.9532 1015.41 49.1156L1015.54 49.1495C1016.88 49.4837 1018.37 49.8506 1019.57 49.9379C1021.56 50.9979 1024.15 52.8847 1026.5 54.6567C1027.1 55.1085 1027.7 55.5646 1028.26 55.994C1028.79 56.3999 1029.29 56.7818 1029.73 57.1136C1030.65 57.8045 1031.41 58.3602 1031.87 58.6215C1032.82 59.1557 1033.39 59.5569 1033.72 59.8024C1033.77 59.8387 1033.82 59.8747 1033.87 59.9085C1033.96 59.9797 1034.05 60.0419 1034.1 60.0795C1034.13 60.0957 1034.16 60.1164 1034.2 60.135C1034.23 60.1494 1034.3 60.1855 1034.4 60.1958C1034.43 60.1988 1034.46 60.1995 1034.5 60.1963C1034.55 60.2148 1034.61 60.2388 1034.68 60.2685C1034.92 60.3726 1035.28 60.5329 1035.71 60.7346C1036.59 61.1372 1037.76 61.6974 1038.96 62.284C1040.17 62.8706 1041.4 63.4824 1042.39 63.9882C1043.4 64.5032 1044.12 64.8877 1044.33 65.0295C1044.77 65.3323 1046.24 66.5072 1047.1 68.3333C1047.93 70.1207 1048.2 72.5725 1046.2 75.5527C1045.75 76.2264 1045.38 76.7829 1045.06 77.2382L1045.01 76.3762L1044.17 77.8979C1044.04 78.1382 1043.91 78.3838 1043.8 78.596C1043.71 78.7942 1043.61 79.0027 1043.57 79.1501C1043.56 79.1867 1043.54 79.2531 1043.54 79.3295C1043.54 79.3671 1043.54 79.4383 1043.56 79.5204C1043.59 79.6089 1043.66 79.7357 1043.81 79.8138C1043.96 79.889 1044.09 79.8769 1044.17 79.8597ZM1033.98 59.6692C1033.98 59.6658 1033.98 59.66 1033.98 59.6523C1033.98 59.6582 1033.98 59.6641 1033.98 59.6701V59.6692Z" fill="black" stroke="#111111"/>
<path d="M967.169 86.841C967.184 87.1151 966.272 89.011 965.814 89.9246H968.479L970.289 87.8347L982.09 87.6055L990.521 88.9762L993.632 90.5816L996.8 91.0105L1000.05 91.4755L1003.35 91.0105L1006.13 90.2929L1009.66 91.0105L1013.73 91.4755L1020.25 91.0105L1023.08 88.7561H1028.76L1032.93 91.7471H1033.96H1036.55V89.4766L1034.39 89.4381V89.3893L1034.46 79.0067L1032.07 77.1203L1023.67 70.6536L1019.42 67.681C1018.12 67.1475 1015.09 65.954 1013.39 65.4486C1012.17 64.812 1003.32 65.1383 1001.09 65.1384C999.505 65.1384 996.1 66.9052 994.569 68.012C994.162 67.8973 993.247 68.2318 992.518 68.012C981.763 65.5346 976.695 68.0464 975.802 69.2504C974.179 69.8181 969.75 74.3428 969.513 75.7366C968.437 76.9237 968.04 79.2918 967.569 80.781C967.097 82.2703 967.151 86.4984 967.169 86.841Z" fill="#FAA5A5"/>
<path d="M963.68 101.02L965.595 89.9548L970.446 87.729L971.436 87.627L992.583 87.961L970.152 89.1283L969.523 89.6009L969.031 90.007L967.285 91.657L967.152 92.714L966.544 95.3836L967.509 98.5055L969.335 101.496L975.35 103.624L985.24 104.562L981.05 107.94L979.392 111.235V114.613L979.916 119.391L984.193 121.121L992.398 125.405L1000.52 125.817L1009.16 124.828L1015.62 119.391L1018.15 121.121V124.828L1021.47 119.391L1022.51 116.013L1021.47 113.871L1011.25 104.562H1019.02L1026.18 103.491L1030.31 101.364L1032.34 98.1391L1032.79 95.6338L1033.16 92.5422H1036.63V93.3151C1036.56 95.9361 1036.76 100.048 1036.85 101.864C1036.99 99.7496 1039.33 97.2222 1039.91 96.5246L1042.55 95.1766H1045.53L1047.39 95.6338L1048.79 99.2077L1049.31 106.622L1047.39 115.107L1043.55 120.132L1034.82 122.027L1030.3 127.772L1020.58 132.393L1007.1 137.14L1001.73 138.026H996.233L985.24 134.291L973.228 129.418L965.687 120.627L962.37 120.132L955.387 111.812L953.553 105.963L954.165 97.3129L955.3 95.2302L957.351 93.9589L961.561 95.9669L962.02 98.3072L962.37 101.02H963.68Z" fill="#FAA5A5"/>
<path d="M975.688 69.3277C974.068 69.8445 969.543 76.0063 968.243 77.7385C969.286 77.6297 973.623 74.3649 975.688 73.2762C978.33 71.883 983.311 69.9265 985.962 69.3277C988.011 69.7792 991.155 69.6422 994.6 69.1282C998.907 68.4856 1000.84 68.2306 1004.38 67.2025C1007.92 66.1744 1015.77 68.7172 1018.33 69.7805C1020.39 70.6312 1029.85 76.6709 1033.89 79.9252L1034.46 80.6972L1034.52 79.6232L1034.09 78.9505C1033.03 78.0996 1029.78 75.4949 1025.21 71.883C1020.65 68.2711 1020.78 67.9695 1020.28 67.9143C1019.09 67.4286 1014.38 65.7454 1014.11 65.7454C1014.01 65.4915 1007.63 64.4493 1007.39 64.4212C1007.15 64.3931 1001.67 64.8337 1000.63 65.2828C999.724 65.0806 996.144 66.9816 994.468 67.9835C994.309 68.049 993.896 68.0355 993.383 68.0355C992.787 68.0355 989.015 67.2477 984.968 66.8544C980.92 66.4612 976.938 67.9512 975.688 69.3277Z" fill="#E37474"/>
<path d="M971.706 86.1729L970.203 87.315L972.415 87.9059L977.798 88.1028L982.472 87.9059C983.849 87.9716 987.271 88.1737 989.942 88.4573C992.613 88.7409 993.364 89.2581 993.406 89.4813V88.8905C993.35 88.628 993.022 87.9453 992.154 87.315C991.286 86.6848 990.067 86.5799 989.567 86.6062L987.647 86.1729L983.683 85.464L980.72 85.0703H977.089H974.961L973.417 85.464L971.706 86.1729Z" fill="#473939"/>
<path d="M1009.19 87.7758L1006.32 89.8903L1006.35 90.2048L1009.32 89.7016L1010.57 89.0309L1014.22 88.5645L1017.88 88.3338L1021.71 88.0926L1025.48 88.0925L1028.29 87.6784L1027.32 86.9502L1021.57 86.049L1017.72 85.9757L1010.7 86.7332L1009.19 87.7758Z" fill="#473939"/>
<path opacity="0.5" d="M981.427 89.2795H981.427L986.462 89.2793L991.437 90.09L993.888 91.7522L995.497 93.3697L995.786 94.5435L995.471 95.8261L992.352 100.696L987.956 103.566H981.507L974.273 102.397L970.061 100.609L968.545 98.4069L967.688 95.3983L968.279 92.1443L969.4 90.9602L970.557 90.0841L975.349 89.2795H981.427Z" stroke="black" stroke-width="2"/>
<path opacity="0.5" d="M1018.38 89.2815H1018.38L1013.35 89.2813L1008.37 90.0919L1005.92 91.754L1004.31 93.3713L1004.02 94.5449L1004.34 95.8273L1007.46 100.697L1011.85 103.566H1018.3L1025.54 102.398L1029.75 100.61L1031.26 98.408L1032.12 95.3997L1031.53 92.146L1030.41 90.962L1029.25 90.086L1024.46 89.2815H1018.38Z" stroke="black" stroke-width="2"/>
<path d="M997.509 93.5403L996.818 94.6536L996.188 92.8197L994.946 91.3892L993.466 90.2784C994.755 90.3296 998.87 92.2101 1003.45 91.0053C1007.16 90.0286 1008.18 88.7236 1004.88 91.3892L1003.54 92.75L1003.08 94.6536L1002.56 93.5403H997.509Z" fill="black"/>
<path d="M973.371 156.051V130.551C981.382 135.827 997.362 139.533 1001.02 139.463C1004.69 139.392 1024.96 134.332 1031.26 129.232V149.632L1043.47 158.689C1044.55 162.881 1045.28 171.088 1035.07 177.243C1026.01 188.147 1003.6 187.18 994.161 186.564C984.363 185.925 974.516 180.673 969.938 173.55C966.276 167.852 968.699 161.533 969.938 159.833L973.371 156.051Z" fill="#FAA5A5"/>
<path d="M959.934 102.584L959.358 103.75L959.152 104.449L957.505 104.683L956.64 106.043V107.908L957.505 108.763L958.163 110.628H960.304V109.384L959.358 108.763L958.987 107.908V106.043L959.934 104.916L961.54 104.449L962.94 104.1V103.478V102.312L961.087 102.584H959.934Z" fill="#DA4949"/>
<path d="M1038.3 108.125V107.002L1038.81 105.557L1041.7 105.156L1043.66 107.002L1044 109.569L1042.98 111.494L1041.7 112.056L1040.85 113.901H1038.81V112.537L1040.43 110.933V108.125H1038.3Z" fill="#DA4949"/>
<path d="M991.418 124.919L980.105 119.439L985.851 119.1L998.91 120.317L1011.95 119.1L1016.14 119.439L1012.67 122.998L1009.14 124.919L1001.23 125.879H995.129L991.418 124.919Z" fill="#F1D0D0"/>
<path d="M979.791 119.517L985.442 118.872L984.759 116.938H1014.63L1013.51 118.872L1016.18 119.517L1017.55 120.278L1017.15 115.057L982.586 115.824L979.791 116.938V119.517Z" fill="#3F3B3B"/>
<path d="M984.763 116.869H1014.39V118.629L998.55 120.461L992.522 120.145L984.763 118.96L984.763 116.869Z" fill="white"/>
<path d="M981.283 107.912L985.442 104.547C988.784 105.308 987.215 105.827 985.442 106.888C984.139 107.668 982.431 109.741 982.113 110.299L981.283 116.025L979.532 116.727V111.149L981.283 107.912Z" fill="#DA4949"/>
<path d="M995.121 126.073L991.616 124.941L996.966 127.858L1003.7 127.553L1008.31 124.941L1006.51 125.333L1002.92 126.073H995.121Z" fill="#DA4949"/>
<path d="M993.151 101.384L997.276 93.6641L1002.56 93.6641L1006.72 101.384L1011.08 106.815L1010.28 108.621H1008.04L1005.93 107.012L1004.75 106.815L1003.42 107.012L1002.41 107.486L1001.83 108.283V110.098H994.721V108.283L992.426 107.396L991.502 107.778L990.104 107.943L988.148 108.395L987.304 108.104L986.974 107.012L986.593 106.048L986.739 105.543L987.304 105.007L993.151 101.384Z" fill="#FAA5A5"/>
<path d="M993.391 107.489L990.586 107.103L989.322 107.546L988.059 107.989L987.489 107.69L986.308 105.977L981.854 110.156L981.08 115.722L992.963 114.674L993.391 113.056L999.972 112.567V110.156L994.893 109.759L994.454 108.121L993.391 107.489Z" fill="#FD8C8C"/>
<path d="M993.048 112.453L992.75 114.528H1015.13L1015.92 115.316L1016.49 112.453L1011 107.06L1009.87 108.601L1007.54 108.214L1006.07 107.06L1004.66 106.729L1003.3 107.06L1002.41 107.421L1001.84 108.214L1001.54 109.883L999.917 110.213V112.453H993.048Z" fill="#FD8C8C"/>
<path d="M1004.93 108.078C1003.76 107.846 1002.8 108.175 1002.46 108.368L1002.68 109.364C1002.93 109.392 1003.67 109.53 1004.62 109.862C1005.57 110.194 1007.48 110 1008.31 109.862L1007.61 108.991C1007.2 108.783 1006.09 108.31 1004.93 108.078Z" fill="#D62D2D"/>
<path d="M992.328 107.517C993.435 107.603 994.188 108.173 994.427 108.447L993.913 109.338C993.683 109.298 992.984 109.235 992.033 109.3C991.082 109.365 989.445 108.674 988.746 108.321L989.649 107.677C990.081 107.588 991.22 107.431 992.328 107.517Z" fill="#D62D2D"/>
<path d="M1015.91 115.535L1016.53 112.43L1011.17 107.336L1006.76 101.342L1016.67 111.483L1022.07 117.147L1021.53 119.262L1020.55 121.157L1018.13 124.954V121.157L1016.99 120.441V116.249L1015.91 115.535Z" fill="#EBB0B0"/>
<path d="M1022.52 116.063L1022.15 117.363L1021.01 120.538L1018.24 124.61L1020.45 120.314L1021.55 116.736L1006.96 101.559L1011.04 104.354L1021.37 113.702L1022.52 116.063Z" fill="#DA4949"/>
<path d="M979.244 111.2L979.696 116.578L980.088 111.2L981.747 107.87L986.782 104.825L986.27 104.598H985.365L980.993 107.87L979.244 111.2Z" fill="#C41F1F"/>
<path d="M996.158 136.265L996.809 137.972H1004.19L1004.62 136.265V134.763L1001.15 133.398L997.46 134.013L996.158 136.265Z" fill="#F77A7A"/>
<path d="M1022.64 116.003L1021.41 113.975L1022.09 116.003L1021.2 119.32L1021.61 118.708L1022.64 116.003Z" fill="#873535"/>
<path d="M981.333 115.65L979.489 117.008L982.926 116.177H989.367H999.743L1010.12 116.545H1017.24L1016.25 115.197L1012.71 113.974L1007.91 113.68L1003.77 113.974L999.743 114.818L996.984 113.974L991.851 113.68L986.939 113.974L982.926 114.47L981.333 115.65Z" fill="#F1D0D0"/>
<path d="M1018.62 103.933L1011.81 103.798L1007.37 100.885L1005.35 97.8309L1004.03 95.3117L1003.84 94.5297L1004.23 93.2619L1005.24 92.1771L1007.82 90.2613L1010.27 89.347L1014.1 89.1289H1018.11L1024.04 89.2174L1028.72 89.7819L1029.33 89.8882L1030.46 90.6998L1031.66 92.0186L1032.32 95.3117L1031.81 97.0435L1031.41 98.5044L1029.86 100.781L1025.62 102.593L1018.62 103.933Z" fill="#FAA5A5"/>
<path d="M1013.92 94.6657C1015.88 94.2223 1017.61 94.1417 1018.23 94.1569L1015.14 93.5566L1010.54 94.1569L1008.53 95.0348L1007.01 96.6524L1007.8 97.7614L1012.65 101.042L1024 100.719L1025.02 100.098L1023.15 99.6566L1016.81 97.7614L1011.67 97.3917L1009.9 96.6524L1010.87 95.6819C1011.08 95.5895 1011.96 95.1091 1013.92 94.6657Z" fill="#DA4949"/>
<path d="M1023.98 94.897L1027.34 96.8784L1022.53 97.4668L1018.04 97.724L1013.5 97.4668L1009.41 96.8784L1011.32 95.4538L1014.18 94.64L1017 94.2845L1019.72 93.9121L1023.98 94.897Z" fill="#D9D9D9"/>
<path d="M1020.71 96.3136C1020.71 97.1056 1019.75 97.7477 1018.57 97.7477C1017.38 97.7477 1016.43 97.1056 1016.43 96.3136C1016.43 95.5216 1017.48 94.0801 1018.67 94.0801C1019.85 94.0801 1020.71 95.5216 1020.71 96.3136Z" fill="#222121"/>
<path d="M957.651 109.317C957.44 108.273 956.918 108.151 956.589 107.902L958.412 108.882L960.408 110.645H959.552C959.07 110.645 957.862 110.361 957.651 109.317Z" fill="#852A2A"/>
<path d="M1020.35 94.7887L1013.65 94.4087L1015.42 93.6309H1020.15L1023.55 94.5077L1027.34 96.7742L1024.82 95.9472L1020.35 94.7887Z" fill="#DA5B5B"/>
<path d="M1014.83 97.8868L1009.94 97.1868L1009.38 97.0421L1013.81 99.3839L1022.35 100.181L1025.55 98.9669L1026.98 97.8451L1027.31 96.9082L1021.28 97.7181L1014.83 97.8868Z" fill="#F28D8D"/>
<path d="M970.389 89.8278L968.11 91.9595L967.418 95.378L968.273 98.4507L969.982 100.717L974.174 102.618L980.083 103.783H988.105L990.311 102.253L992.549 100.794L995.513 96.3489L995.988 94.533L995.683 93.1886L993.811 91.4218L991.348 89.8278L986.567 89.002H975.171L970.389 89.8278Z" fill="#FAA5A5"/>
<path d="M995.083 125.845L991.689 124.982L995.373 126.489L1003.08 126.557L1005.66 126.133L1008.1 124.982L1002.54 125.708L995.083 125.845Z" fill="#922B2B"/>
<path d="M979.73 95.7713L971.568 95.5059L974.222 94.4434H986.847L987.37 95.5059L987.571 96.5304L979.73 95.7713Z" fill="#D9D9D9"/>
<path d="M983.53 95.6203C983.53 96.4123 982.571 97.0543 981.387 97.0543C980.204 97.0543 979.244 96.4123 979.244 95.6203C979.244 94.8283 980.301 93.3867 981.485 93.3867C982.668 93.3867 983.53 94.8283 983.53 95.6203Z" fill="#222121"/>
<path d="M979.47 95.8243L971.286 95.6211L976.518 98.7158H980.473L987.571 97.6323V96.5698L979.47 95.8243Z" fill="#F28D8D"/>
<path d="M987.485 97.6447L975.62 99.0121H990.159L991.83 96.3308L989.546 93.8599L985.257 92.8086L973.837 93.4389L969.715 94.9635L971.386 95.4895L974.227 94.3856H986.872L987.485 95.4895V97.6447Z" fill="#DA5B5B"/>
<path d="M1002.68 186.349C969.291 186.349 966.291 163.583 972.561 156.779L952.812 166.246L928.362 170.979L907.045 183.701L897.641 222.455L888.238 263.873L928.362 271.565L937.766 285.469L931.497 303.811L923.346 340.2L921.105 354.791V366.499H944.54H965.679H1007.44H1021.88H1035.8H1044.05L1079.45 362.734H1088.62L1094.81 341.975L1085.72 314.462V262.098L1096.38 274.819L1141.84 260.619L1106.41 186.955L1079.45 168.908C1062.63 162.597 1031.31 151.336 1040.58 156.779C1052.18 163.583 1035.62 186.349 1002.68 186.349Z" fill="#142845"/>
<path d="M1036.62 108.55V102.227V96.4434L1035.39 114.102L1032.54 123.825L1025.74 129.044L1029.22 126.958L1033.35 124.791L1035.39 121.119L1036.62 113.408V108.55Z" fill="#E18C8C"/>
<path d="M963.375 109.905V100.849L964.564 95.9844V109.306L967.895 120.458L973.129 129.439L966.467 121.131L963.375 109.905Z" fill="#FF9494"/>
<path d="M985.627 119.156L980.32 119.372L990.843 123.776L999.856 124.985L1008.64 123.776L1012.71 121.185L1016.01 119.458L1013.08 118.854L998.53 120.365L985.627 119.156Z" fill="#EEBDBD"/>
<path d="M985.64 119.152L980.444 119.42H985.64L990.977 119.865L998.63 120.727L1009.73 119.612L1013.07 119.137L1015.71 119.419L1013.15 118.84L1009.73 119.271L998.63 120.37L990.977 119.613L985.64 119.152Z" fill="#9A4F4F"/>
<path d="M995.552 137.76L972.202 128.915L973.611 130.911L979.454 134.038L990.648 137.76L995.833 139.089L1001.31 139.47L1008.64 138.356L1015.38 136.352L1023.99 133.349L1028.87 131.41L1031.26 129.007L1034.78 121.461L1032.97 124.882L1018.75 132.983L1004.86 137.44L995.552 137.76Z" fill="#F09B9B"/>
<path d="M1031.65 94.5412C1030.92 98.7201 1029.25 100.606 1027.08 101.619C1024.71 102.725 1021.56 102.9 1017.5 103.057C1016.83 103.057 1016.22 103.067 1015.66 103.075C1014.66 103.091 1013.8 103.105 1012.97 103.061C1011.72 102.996 1010.77 102.804 1009.93 102.368C1008.3 101.516 1006.64 99.4767 1004.61 93.9481C1004.72 92.8321 1005.7 91.7235 1008.23 90.835C1010.84 89.9176 1014.53 89.4766 1018.62 89.4766C1022.85 89.4766 1026.51 89.5486 1028.97 90.3427C1030.17 90.7295 1030.89 91.2312 1031.29 91.805C1031.66 92.3456 1031.89 93.1671 1031.65 94.5412Z" stroke="#0C0343" stroke-width="3"/>
<path d="M968.222 94.8447C968.957 99.0242 970.624 100.91 972.794 101.923C975.164 103.03 978.319 103.205 982.379 103.361C983.048 103.362 983.654 103.371 984.218 103.38C985.215 103.396 986.077 103.409 986.909 103.366C988.158 103.3 989.108 103.108 989.941 102.673C991.574 101.82 993.233 99.7809 995.27 94.2515C995.153 93.1352 994.171 92.0264 991.642 91.1379C989.031 90.2204 985.343 89.7793 981.258 89.7793C977.025 89.7793 973.369 89.8513 970.906 90.6455C969.707 91.0323 968.983 91.5341 968.586 92.108C968.213 92.6487 967.98 93.4704 968.222 94.8447Z" stroke="#0C0343" stroke-width="3"/>
<path d="M1036.66 92.5717H1033.22L1032.91 91.666L1036.66 91.8257V92.5717Z" fill="#1B1B1B"/>
<path d="M983.011 114.526L981.04 115.724L983.679 113.545L991.757 112.873L997.099 113.246L999.474 114.292L1004.78 113.246H1012.45L1016.05 115.093L1012.22 113.806H1004.78L999.474 114.777L996.708 113.806L991.757 113.545L983.011 114.526Z" fill="#D07B7B"/>
<path d="M1031.51 104.176C1028.92 106.693 1022.94 106.243 1018.18 106.243L1024.56 112.356L1022.94 120.536L1016.85 129.705L1025.83 125.551L1031.51 118.289C1032.66 115.262 1034.26 108.203 1031.51 104.176Z" fill="#F3A1A1"/>
<path d="M1104.39 299.002L1096.47 274.515L1128.28 264.932V266.504L1133.28 301.623V313.679L1113.84 363.737L1088.59 362.548L1104.39 299.002Z" fill="#FAA5A5"/>
<path d="M902.124 293.198L903.704 266.398L927.138 270.585L932.804 278.024C933.067 283.823 932.351 298.764 930.034 310.096C927.717 321.427 927.138 324.922 927.138 325.254L924.213 341.358L921.619 367H903.704L902.124 293.198Z" fill="#FAA5A5"/>
<path d="M971.942 156.9C971.96 156.868 971.978 156.836 971.996 156.805C971.98 156.838 971.962 156.869 971.942 156.9C970.091 160.206 967.804 168.339 973.088 175.231C978.423 182.189 987.114 185.073 990.793 185.646L1006.07 186.447C1010.64 185.875 1020.24 184.478 1022.08 183.471C1023.92 182.464 1029.72 180.076 1032.39 179.008L1041.48 171.225C1043.83 167.868 1047.91 159.666 1039.42 155.66C1048.15 157.491 1050.43 162.476 1050.51 164.88C1050.47 170.335 1047.59 185.524 1027.02 191.475C1006.46 197.427 990.204 193.459 983.898 191.475C973.088 189.934 957.947 175.081 961.148 166.016C964.288 157.127 970.916 158.455 971.942 156.9Z" fill="#0C0533"/>
<path d="M1016.9 116.587L1016.32 114.746L1017.38 117.751V119.496L1016.9 121.208V120.239V116.587Z" fill="#3F3B3B"/>
<g filter="url(#filter0_i_1309_8111)">
<path d="M984.763 116.869H987.403V119.3L986.048 119.177L985.599 119.141L984.794 119.177L984.763 116.869Z" fill="white"/>
</g>
<g filter="url(#filter1_i_1309_8111)">
<path d="M987.403 116.869H990.043V119.54L988.666 119.409L987.403 119.306V116.869Z" fill="white"/>
</g>
<g filter="url(#filter2_i_1309_8111)">
<path d="M990.043 116.869H992.683V119.785L991.266 119.645L990.043 119.523L990.043 116.869Z" fill="white"/>
</g>
<g filter="url(#filter3_i_1309_8111)">
<path d="M992.683 116.869H995.35V120.041L992.683 119.783V116.869Z" fill="white"/>
</g>
<g filter="url(#filter4_i_1309_8111)">
<path d="M995.265 116.83L998.157 116.878V120.318L995.265 120.018V116.83Z" fill="white"/>
</g>
<g filter="url(#filter5_i_1309_8111)">
<path d="M998.164 116.869H1001.34V120.1L999.688 120.299L998.636 120.367L998.164 120.326V116.869Z" fill="white"/>
</g>
<g filter="url(#filter6_i_1309_8111)">
<path d="M1001.34 116.869H1003.98V119.845L1001.34 120.103V116.869Z" fill="white"/>
</g>
<g filter="url(#filter7_i_1309_8111)">
<path d="M1003.98 116.869H1006.62V119.576L1003.98 119.842V116.869Z" fill="white"/>
</g>
<g filter="url(#filter8_i_1309_8111)">
<path d="M1006.62 116.869H1009.26V119.328L1006.62 119.577V116.869Z" fill="white"/>
</g>
<g filter="url(#filter9_i_1309_8111)">
<path d="M1009.26 116.896H1011.9V118.999L1009.26 119.309V116.896Z" fill="white"/>
</g>
<g filter="url(#filter10_i_1309_8111)">
<path d="M1011.9 116.869H1014.54V118.725L1011.9 118.999V116.869Z" fill="white"/>
</g>
<path d="M964.859 93.672H966.958V92.8652H964.081L960.351 95.2858L961.595 95.8726L964.859 93.672Z" fill="#221B1B"/>
<path d="M978.86 108.308C974.552 108.474 969.297 104.988 967.209 103.225C967.209 114.926 976.589 122.554 981.278 124.905C978.75 122.312 974.727 115.362 978.86 108.308Z" fill="#D9D9D9" fill-opacity="0.26"/>
<rect x="53.6565" y="263.119" width="145.228" height="45.1113" rx="22.5557" fill="#DBFF00"/>
<path d="M77.4085 292.676V279.585H80.1762V285.357H80.3488L85.0598 279.585H88.3772L83.5193 285.446L88.4348 292.676H85.1237L81.5377 287.294L80.1762 288.956V292.676H77.4085ZM92.4905 287V292.676H89.7675V282.858H92.3627V284.59H92.4777C92.6951 284.019 93.0594 283.567 93.5708 283.235C94.0821 282.898 94.7022 282.73 95.4308 282.73C96.1127 282.73 96.7071 282.879 97.2142 283.177C97.7213 283.475 98.1155 283.902 98.3968 284.456C98.678 285.005 98.8186 285.662 98.8186 286.424V292.676H96.0956V286.91C96.0999 286.309 95.9465 285.841 95.6354 285.504C95.3243 285.163 94.896 284.993 94.3506 284.993C93.9841 284.993 93.6603 285.071 93.379 285.229C93.102 285.387 92.8847 285.617 92.727 285.919C92.5736 286.218 92.4948 286.578 92.4905 287ZM105.401 292.868C104.408 292.868 103.549 292.657 102.825 292.235C102.105 291.809 101.549 291.216 101.157 290.458C100.764 289.695 100.568 288.811 100.568 287.805C100.568 286.791 100.764 285.904 101.157 285.146C101.549 284.383 102.105 283.791 102.825 283.369C103.549 282.943 104.408 282.73 105.401 282.73C106.394 282.73 107.25 282.943 107.97 283.369C108.695 283.791 109.253 284.383 109.645 285.146C110.037 285.904 110.233 286.791 110.233 287.805C110.233 288.811 110.037 289.695 109.645 290.458C109.253 291.216 108.695 291.809 107.97 292.235C107.25 292.657 106.394 292.868 105.401 292.868ZM105.414 290.758C105.865 290.758 106.242 290.63 106.545 290.375C106.848 290.115 107.076 289.761 107.229 289.314C107.387 288.866 107.465 288.357 107.465 287.786C107.465 287.215 107.387 286.706 107.229 286.258C107.076 285.811 106.848 285.457 106.545 285.197C106.242 284.937 105.865 284.807 105.414 284.807C104.958 284.807 104.574 284.937 104.263 285.197C103.956 285.457 103.724 285.811 103.566 286.258C103.413 286.706 103.336 287.215 103.336 287.786C103.336 288.357 103.413 288.866 103.566 289.314C103.724 289.761 103.956 290.115 104.263 290.375C104.574 290.63 104.958 290.758 105.414 290.758ZM113.695 292.676L111.023 282.858H113.778L115.299 289.454H115.388L116.974 282.858H119.677L121.288 289.416H121.371L122.867 282.858H125.616L122.95 292.676H120.067L118.38 286.501H118.258L116.571 292.676H113.695ZM131.285 279.585H134.699L138.304 288.38H138.457L142.062 279.585H145.476V292.676H142.791V284.155H142.682L139.295 292.612H137.467L134.079 284.123H133.97V292.676H131.285V279.585ZM152.141 292.868C151.148 292.868 150.29 292.657 149.565 292.235C148.845 291.809 148.289 291.216 147.897 290.458C147.505 289.695 147.309 288.811 147.309 287.805C147.309 286.791 147.505 285.904 147.897 285.146C148.289 284.383 148.845 283.791 149.565 283.369C150.29 282.943 151.148 282.73 152.141 282.73C153.134 282.73 153.991 282.943 154.711 283.369C155.435 283.791 155.993 284.383 156.385 285.146C156.777 285.904 156.973 286.791 156.973 287.805C156.973 288.811 156.777 289.695 156.385 290.458C155.993 291.216 155.435 291.809 154.711 292.235C153.991 292.657 153.134 292.868 152.141 292.868ZM152.154 290.758C152.606 290.758 152.983 290.63 153.285 290.375C153.588 290.115 153.816 289.761 153.969 289.314C154.127 288.866 154.206 288.357 154.206 287.786C154.206 287.215 154.127 286.706 153.969 286.258C153.816 285.811 153.588 285.457 153.285 285.197C152.983 284.937 152.606 284.807 152.154 284.807C151.698 284.807 151.314 284.937 151.003 285.197C150.696 285.457 150.464 285.811 150.307 286.258C150.153 286.706 150.076 287.215 150.076 287.786C150.076 288.357 150.153 288.866 150.307 289.314C150.464 289.761 150.696 290.115 151.003 290.375C151.314 290.63 151.698 290.758 152.154 290.758ZM158.744 292.676V282.858H161.384V284.571H161.486C161.665 283.961 161.966 283.501 162.388 283.19C162.809 282.875 163.295 282.717 163.845 282.717C163.981 282.717 164.128 282.725 164.286 282.743C164.444 282.76 164.582 282.783 164.701 282.813V285.229C164.574 285.191 164.397 285.157 164.171 285.127C163.945 285.097 163.738 285.082 163.551 285.082C163.15 285.082 162.792 285.169 162.477 285.344C162.166 285.515 161.919 285.753 161.736 286.06C161.557 286.367 161.467 286.721 161.467 287.121V292.676H158.744ZM170.127 292.868C169.117 292.868 168.247 292.663 167.519 292.254C166.794 291.841 166.236 291.257 165.844 290.502C165.452 289.744 165.256 288.847 165.256 287.811C165.256 286.801 165.452 285.915 165.844 285.152C166.236 284.39 166.788 283.795 167.5 283.369C168.215 282.943 169.055 282.73 170.018 282.73C170.666 282.73 171.269 282.834 171.827 283.043C172.389 283.248 172.88 283.556 173.297 283.97C173.719 284.383 174.047 284.903 174.282 285.529C174.516 286.152 174.633 286.88 174.633 287.716V288.463H166.343V286.776H172.07C172.07 286.384 171.985 286.037 171.814 285.734C171.644 285.431 171.407 285.195 171.105 285.025C170.806 284.85 170.459 284.762 170.063 284.762C169.649 284.762 169.283 284.858 168.963 285.05C168.648 285.238 168.401 285.491 168.222 285.811C168.043 286.126 167.951 286.478 167.947 286.865V288.47C167.947 288.956 168.036 289.375 168.215 289.729C168.399 290.083 168.657 290.355 168.989 290.547C169.321 290.739 169.715 290.835 170.171 290.835C170.474 290.835 170.751 290.792 171.002 290.707C171.254 290.622 171.469 290.494 171.648 290.324C171.827 290.153 171.963 289.944 172.057 289.697L174.576 289.863C174.448 290.468 174.186 290.997 173.789 291.449C173.397 291.896 172.89 292.245 172.268 292.497C171.65 292.744 170.936 292.868 170.127 292.868Z" fill="#0019FF"/>
<g filter="url(#filter11_b_1309_8111)">
<rect x="54.6565" y="181.961" width="47.5775" height="46.6309" rx="5" fill="white"/>
<rect x="55.1565" y="182.461" width="46.5775" height="45.6309" rx="4.5" stroke="#D9D9D9" stroke-dasharray="1 0"/>
</g>
<path d="M66.1553 195.176L68.3739 214.81L78.3299 216.991L88.3134 214.807L90.5343 195.176H66.1553ZM85.7063 201.597H74.0273L74.3062 204.063H85.4285L84.591 211.456L78.3448 212.822L78.3308 212.826L72.079 211.456L71.6514 207.675H74.7151L74.9323 209.596L78.3313 210.32L78.3342 210.32L81.7381 209.594L82.0925 206.471H71.515L70.6918 199.189H85.9795L85.7063 201.597Z" fill="#FF0505"/>
<g filter="url(#filter12_b_1309_8111)">
<rect x="114.079" y="181.961" width="47.5775" height="46.6309" rx="5" fill="white"/>
<rect x="114.579" y="182.461" width="46.5775" height="45.6309" rx="4.5" stroke="#D9D9D9" stroke-dasharray="1 0"/>
</g>
<path d="M135.337 216.146L145.97 212.788L149.498 196.023H129.582L128.825 199.764H144.785L144.288 202.152H128.303L127.522 205.893H143.483L142.606 210.174L136.165 212.179L130.6 210.174L130.98 208.304H127.049L126.125 212.788L135.337 216.146Z" fill="#0075FF"/>
<g filter="url(#filter13_b_1309_8111)">
<rect x="173.501" y="181.961" width="47.5775" height="46.6309" rx="5" fill="white"/>
<rect x="174.001" y="182.461" width="46.5775" height="45.6309" rx="4.5" stroke="#D9D9D9" stroke-dasharray="1 0"/>
</g>
<path d="M200.485 208.885C199.491 208.967 198.49 208.814 197.594 208.443C197.391 208.307 197.223 208.137 197.101 207.944C196.98 207.752 196.906 207.54 196.886 207.322C196.885 207.29 196.877 207.258 196.862 207.228C196.847 207.198 196.824 207.171 196.797 207.148C196.769 207.125 196.736 207.108 196.7 207.096C196.664 207.084 196.625 207.078 196.586 207.079C196.168 207.074 195.749 207.075 195.331 207.078C195.258 207.072 195.185 207.09 195.128 207.129C195.07 207.168 195.034 207.224 195.025 207.285C195.001 207.667 195.078 208.048 195.25 208.402C195.422 208.756 195.685 209.073 196.021 209.332C196.867 209.887 197.894 210.211 198.966 210.262C200.083 210.371 201.213 210.331 202.314 210.143C203.16 210.011 203.936 209.66 204.533 209.139C204.863 208.798 205.084 208.391 205.175 207.958C205.267 207.525 205.226 207.08 205.056 206.664C204.914 206.37 204.693 206.108 204.411 205.898C204.129 205.687 203.793 205.534 203.43 205.449C201.737 204.95 199.908 204.988 198.182 204.609C197.882 204.53 197.516 204.444 197.383 204.177C197.306 203.99 197.3 203.787 197.368 203.597C197.435 203.407 197.572 203.239 197.758 203.118C198.3 202.858 198.917 202.729 199.541 202.745C200.388 202.678 201.241 202.781 202.032 203.044C202.269 203.161 202.473 203.321 202.63 203.511C202.787 203.701 202.893 203.917 202.94 204.145C202.942 204.213 202.974 204.277 203.03 204.325C203.085 204.373 203.16 204.403 203.24 204.407C203.656 204.414 204.072 204.409 204.487 204.409C204.559 204.416 204.632 204.402 204.692 204.367C204.752 204.333 204.795 204.282 204.814 204.223C204.818 203.753 204.675 203.289 204.4 202.879C204.125 202.469 203.727 202.127 203.245 201.886C201.917 201.371 200.442 201.182 198.991 201.339C197.928 201.376 196.913 201.719 196.115 202.31C195.749 202.641 195.501 203.052 195.399 203.496C195.298 203.94 195.347 204.399 195.541 204.821C195.692 205.103 195.914 205.355 196.192 205.558C196.47 205.762 196.797 205.912 197.151 205.999C198.839 206.511 200.688 206.347 202.392 206.799C202.724 206.894 203.11 207.038 203.212 207.348C203.267 207.534 203.262 207.729 203.2 207.913C203.137 208.097 203.019 208.265 202.856 208.399C202.147 208.768 201.317 208.939 200.485 208.885ZM208.177 199.513C204.882 197.949 201.587 196.386 198.291 194.825C197.961 194.669 197.588 194.588 197.209 194.588C196.83 194.588 196.458 194.669 196.127 194.825C192.844 196.381 189.561 197.938 186.277 199.494C185.958 199.64 185.691 199.855 185.504 200.118C185.317 200.38 185.217 200.679 185.214 200.984V210.389C185.22 210.7 185.325 211.004 185.519 211.269C185.714 211.533 185.99 211.749 186.318 211.893C187.261 212.324 188.178 212.799 189.138 213.201C189.692 213.45 190.308 213.587 190.936 213.601C191.564 213.616 192.188 213.507 192.758 213.285C193.184 213.06 193.531 212.744 193.762 212.369C193.993 211.994 194.1 211.574 194.072 211.152C194.08 208.049 194.074 204.945 194.075 201.841C194.082 201.807 194.08 201.772 194.069 201.739C194.058 201.706 194.039 201.675 194.014 201.648C193.988 201.622 193.955 201.6 193.919 201.585C193.882 201.569 193.842 201.56 193.801 201.559C193.382 201.553 192.962 201.555 192.542 201.558C192.503 201.555 192.464 201.559 192.427 201.57C192.39 201.58 192.357 201.597 192.328 201.62C192.3 201.642 192.277 201.669 192.262 201.7C192.247 201.73 192.24 201.762 192.241 201.795C192.235 204.879 192.242 207.964 192.237 211.048C192.238 211.261 192.162 211.469 192.018 211.644C191.874 211.82 191.67 211.954 191.432 212.029C191.159 212.097 190.872 212.115 190.589 212.083C190.307 212.052 190.036 211.97 189.793 211.845C188.92 211.43 188.046 211.016 187.172 210.602C187.114 210.579 187.066 210.541 187.034 210.495C187.003 210.448 186.988 210.394 186.994 210.341C186.994 207.238 186.994 204.135 186.994 201.032C186.988 200.972 187.005 200.912 187.042 200.86C187.079 200.808 187.135 200.767 187.202 200.744C190.474 199.196 193.746 197.647 197.017 196.097C197.073 196.064 197.141 196.047 197.209 196.047C197.278 196.047 197.345 196.064 197.402 196.097C200.674 197.645 203.946 199.193 207.218 200.742C207.284 200.767 207.34 200.808 207.377 200.86C207.414 200.912 207.43 200.972 207.424 201.032C207.424 204.135 207.424 207.237 207.423 210.34C207.429 210.394 207.415 210.448 207.384 210.495C207.353 210.542 207.305 210.58 207.248 210.605C204.025 212.134 200.802 213.662 197.576 215.187C197.422 215.259 197.24 215.375 197.059 215.288C196.215 214.886 195.38 214.469 194.538 214.064C194.495 214.036 194.443 214.02 194.389 214.017C194.335 214.015 194.281 214.026 194.234 214.049C193.864 214.231 193.473 214.384 193.069 214.506C192.886 214.568 192.661 214.585 192.536 214.727C192.696 214.874 192.89 214.991 193.106 215.072C194.091 215.551 195.076 216.029 196.062 216.507C196.388 216.679 196.763 216.774 197.147 216.783C197.532 216.792 197.913 216.714 198.25 216.558C201.533 215.003 204.817 213.448 208.1 211.892C208.428 211.748 208.704 211.533 208.898 211.268C209.093 211.004 209.199 210.7 209.204 210.389V200.984C209.202 200.685 209.105 200.391 208.925 200.133C208.744 199.875 208.486 199.661 208.177 199.513Z" fill="#FFE600"/>
<g filter="url(#filter14_b_1309_8111)">
<rect x="232.924" y="181.961" width="47.5775" height="46.6309" rx="5" fill="white"/>
<rect x="233.424" y="182.461" width="46.5775" height="45.6309" rx="4.5" stroke="#D9D9D9" stroke-dasharray="1 0"/>
</g>
<path d="M266.321 205.65C266.163 205.498 265.996 205.346 265.821 205.194C265.943 205.086 266.062 204.978 266.177 204.87C268.342 202.827 269.256 200.779 268.409 199.547C267.597 198.366 265.182 198.014 262.158 198.508C261.86 198.557 261.564 198.612 261.27 198.674C261.213 198.51 261.153 198.348 261.09 198.187C260.064 195.592 258.407 193.903 256.713 193.904C255.089 193.905 253.52 195.486 252.518 197.932C252.42 198.173 252.329 198.416 252.245 198.661C252.048 198.621 251.85 198.583 251.652 198.549C248.462 197.999 245.892 198.361 245.047 199.593C244.237 200.775 245.084 202.706 247.108 204.656C247.309 204.849 247.515 205.038 247.727 205.222C247.477 205.438 247.24 205.654 247.02 205.869C245.045 207.791 244.246 209.691 245.055 210.868C245.891 212.083 248.424 212.48 251.507 211.971C251.757 211.929 252.006 211.882 252.253 211.83C252.343 212.096 252.443 212.359 252.551 212.619C253.548 215.016 255.108 216.546 256.727 216.546C258.398 216.545 260.073 214.901 261.088 212.404C261.168 212.206 261.244 212.001 261.316 211.79C261.635 211.857 261.957 211.916 262.28 211.968C265.251 212.44 267.609 212.069 268.417 210.891C269.251 209.675 268.391 207.635 266.321 205.65ZM246.045 200.076C246.566 199.318 248.665 199.022 251.42 199.497C251.596 199.527 251.775 199.561 251.957 199.598C251.688 200.597 251.498 201.61 251.389 202.63C250.395 203.217 249.448 203.857 248.552 204.547C248.355 204.376 248.163 204.2 247.976 204.021C246.242 202.35 245.557 200.788 246.045 200.076ZM251.286 206.561C250.597 206.123 249.958 205.675 249.377 205.224C249.957 204.776 250.597 204.329 251.284 203.892C251.26 204.337 251.248 204.782 251.248 205.227C251.248 205.672 251.261 206.116 251.286 206.561ZM251.285 211.022C250.116 211.24 248.91 211.276 247.726 211.127C247.401 211.106 247.085 211.029 246.797 210.901C246.51 210.773 246.256 210.597 246.052 210.384C245.562 209.67 246.203 208.145 247.892 206.501C248.104 206.295 248.324 206.094 248.55 205.899C249.445 206.592 250.395 207.235 251.391 207.824C251.502 208.856 251.694 209.882 251.966 210.894C251.74 210.941 251.513 210.984 251.285 211.022ZM260.86 201.921C260.408 201.681 259.95 201.45 259.486 201.226C259.03 201.006 258.569 200.793 258.102 200.59C258.902 200.307 259.687 200.066 260.446 199.87C260.625 200.547 260.763 201.232 260.86 201.921ZM253.608 198.246C254.466 196.15 255.735 194.872 256.714 194.871C257.756 194.871 259.111 196.251 259.996 198.491C260.054 198.637 260.108 198.784 260.159 198.932C258.996 199.235 257.858 199.602 256.752 200.032C255.651 199.597 254.516 199.226 253.355 198.92C253.433 198.694 253.517 198.469 253.608 198.246ZM253.068 199.858C253.86 200.067 254.638 200.31 255.4 200.585C254.456 200.994 253.536 201.44 252.64 201.922C252.748 201.2 252.892 200.508 253.068 199.858ZM252.642 208.53C253.088 208.77 253.542 209.002 254.001 209.224C254.47 209.451 254.946 209.668 255.427 209.875C254.659 210.16 253.874 210.411 253.075 210.628C252.897 209.969 252.751 209.265 252.642 208.53ZM259.998 212.091C259.639 213.05 259.073 213.946 258.329 214.733C258.144 214.958 257.907 215.149 257.632 215.295C257.356 215.44 257.048 215.537 256.726 215.578C255.744 215.579 254.491 214.35 253.638 212.3C253.538 212.058 253.446 211.814 253.361 211.567C254.528 211.251 255.667 210.869 256.772 210.424C257.886 210.856 259.034 211.226 260.206 211.532C260.142 211.719 260.073 211.906 259.998 212.091ZM260.486 210.592C259.719 210.393 258.921 210.148 258.11 209.861C258.568 209.659 259.028 209.446 259.492 209.221C259.968 208.99 260.432 208.754 260.884 208.511C260.794 209.21 260.661 209.905 260.486 210.592ZM261.088 205.223C261.089 205.911 261.064 206.597 261.011 207.284C260.347 207.661 259.646 208.03 258.916 208.384C258.189 208.736 257.469 209.06 256.763 209.353C256.02 209.053 255.291 208.731 254.576 208.386C253.866 208.042 253.172 207.677 252.494 207.289C252.432 206.603 252.4 205.915 252.4 205.226C252.399 204.538 252.43 203.851 252.492 203.164C253.156 202.783 253.852 202.415 254.572 202.066C255.295 201.716 256.024 201.393 256.749 201.101C257.483 201.401 258.204 201.722 258.912 202.064C259.622 202.407 260.318 202.769 261 203.149C261.059 203.84 261.088 204.531 261.088 205.223ZM262.378 199.458C264.969 199.035 266.922 199.319 267.411 200.031C267.933 200.789 267.186 202.463 265.316 204.227C265.213 204.324 265.106 204.422 264.995 204.52C264.084 203.828 263.118 203.19 262.104 202.609C262.002 201.6 261.819 200.598 261.557 199.61C261.836 199.553 262.11 199.502 262.378 199.458ZM262.203 203.855C262.887 204.275 263.545 204.723 264.173 205.2C263.548 205.684 262.892 206.141 262.209 206.568C262.23 206.12 262.24 205.671 262.24 205.223C262.24 204.767 262.227 204.311 262.203 203.855ZM267.419 210.409C266.928 211.123 265.035 211.421 262.494 211.017C262.203 210.971 261.904 210.916 261.598 210.853C261.853 209.852 262.028 208.837 262.12 207.817C263.133 207.225 264.095 206.576 265.002 205.874C265.16 206.013 265.311 206.15 265.454 206.287C266.265 207.027 266.906 207.886 267.346 208.821C267.487 209.067 267.566 209.335 267.578 209.608C267.591 209.881 267.536 210.154 267.419 210.409ZM255.528 203.457C255.115 203.656 254.783 203.955 254.572 204.313C254.362 204.672 254.282 205.075 254.345 205.471C254.407 205.868 254.607 206.24 254.922 206.541C255.236 206.841 255.649 207.057 256.109 207.16C256.569 207.264 257.055 207.251 257.506 207.122C257.957 206.993 258.353 206.755 258.642 206.438C258.932 206.121 259.104 205.739 259.135 205.34C259.166 204.941 259.056 204.543 258.817 204.197C258.498 203.732 257.972 203.393 257.355 203.255C256.738 203.116 256.081 203.189 255.528 203.457Z" fill="black"/>
<defs>
<filter id="filter0_i_1309_8111" x="984.763" y="115.869" width="2.63977" height="3.43164" filterUnits="userSpaceOnUse" color-interpolation-filters="sRGB">
<feFlood flood-opacity="0" result="BackgroundImageFix"/>
<feBlend mode="normal" in="SourceGraphic" in2="BackgroundImageFix" result="shape"/>
<feColorMatrix in="SourceAlpha" type="matrix" values="0 0 0 0 0 0 0 0 0 0 0 0 0 0 0 0 0 0 127 0" result="hardAlpha"/>
<feOffset dy="-1"/>
<feGaussianBlur stdDeviation="0.5"/>
<feComposite in2="hardAlpha" operator="arithmetic" k2="-1" k3="1"/>
<feColorMatrix type="matrix" values="0 0 0 0 0 0 0 0 0 0 0 0 0 0 0 0 0 0 0.25 0"/>
<feBlend mode="normal" in2="shape" result="effect1_innerShadow_1309_8111"/>
</filter>
<filter id="filter1_i_1309_8111" x="987.403" y="115.869" width="2.63977" height="3.66992" filterUnits="userSpaceOnUse" color-interpolation-filters="sRGB">
<feFlood flood-opacity="0" result="BackgroundImageFix"/>
<feBlend mode="normal" in="SourceGraphic" in2="BackgroundImageFix" result="shape"/>
<feColorMatrix in="SourceAlpha" type="matrix" values="0 0 0 0 0 0 0 0 0 0 0 0 0 0 0 0 0 0 127 0" result="hardAlpha"/>
<feOffset dy="-1"/>
<feGaussianBlur stdDeviation="0.5"/>
<feComposite in2="hardAlpha" operator="arithmetic" k2="-1" k3="1"/>
<feColorMatrix type="matrix" values="0 0 0 0 0 0 0 0 0 0 0 0 0 0 0 0 0 0 0.25 0"/>
<feBlend mode="normal" in2="shape" result="effect1_innerShadow_1309_8111"/>
</filter>
<filter id="filter2_i_1309_8111" x="990.043" y="115.869" width="2.64001" height="3.91602" filterUnits="userSpaceOnUse" color-interpolation-filters="sRGB">
<feFlood flood-opacity="0" result="BackgroundImageFix"/>
<feBlend mode="normal" in="SourceGraphic" in2="BackgroundImageFix" result="shape"/>
<feColorMatrix in="SourceAlpha" type="matrix" values="0 0 0 0 0 0 0 0 0 0 0 0 0 0 0 0 0 0 127 0" result="hardAlpha"/>
<feOffset dy="-1"/>
<feGaussianBlur stdDeviation="0.5"/>
<feComposite in2="hardAlpha" operator="arithmetic" k2="-1" k3="1"/>
<feColorMatrix type="matrix" values="0 0 0 0 0 0 0 0 0 0 0 0 0 0 0 0 0 0 0.25 0"/>
<feBlend mode="normal" in2="shape" result="effect1_innerShadow_1309_8111"/>
</filter>
<filter id="filter3_i_1309_8111" x="992.683" y="115.869" width="2.66711" height="4.17188" filterUnits="userSpaceOnUse" color-interpolation-filters="sRGB">
<feFlood flood-opacity="0" result="BackgroundImageFix"/>
<feBlend mode="normal" in="SourceGraphic" in2="BackgroundImageFix" result="shape"/>
<feColorMatrix in="SourceAlpha" type="matrix" values="0 0 0 0 0 0 0 0 0 0 0 0 0 0 0 0 0 0 127 0" result="hardAlpha"/>
<feOffset dy="-1"/>
<feGaussianBlur stdDeviation="0.5"/>
<feComposite in2="hardAlpha" operator="arithmetic" k2="-1" k3="1"/>
<feColorMatrix type="matrix" values="0 0 0 0 0 0 0 0 0 0 0 0 0 0 0 0 0 0 0.25 0"/>
<feBlend mode="normal" in2="shape" result="effect1_innerShadow_1309_8111"/>
</filter>
<filter id="filter4_i_1309_8111" x="995.265" y="115.83" width="2.89282" height="4.48828" filterUnits="userSpaceOnUse" color-interpolation-filters="sRGB">
<feFlood flood-opacity="0" result="BackgroundImageFix"/>
<feBlend mode="normal" in="SourceGraphic" in2="BackgroundImageFix" result="shape"/>
<feColorMatrix in="SourceAlpha" type="matrix" values="0 0 0 0 0 0 0 0 0 0 0 0 0 0 0 0 0 0 127 0" result="hardAlpha"/>
<feOffset dy="-1"/>
<feGaussianBlur stdDeviation="0.5"/>
<feComposite in2="hardAlpha" operator="arithmetic" k2="-1" k3="1"/>
<feColorMatrix type="matrix" values="0 0 0 0 0 0 0 0 0 0 0 0 0 0 0 0 0 0 0.25 0"/>
<feBlend mode="normal" in2="shape" result="effect1_innerShadow_1309_8111"/>
</filter>
<filter id="filter5_i_1309_8111" x="998.164" y="115.869" width="3.17896" height="4.49805" filterUnits="userSpaceOnUse" color-interpolation-filters="sRGB">
<feFlood flood-opacity="0" result="BackgroundImageFix"/>
<feBlend mode="normal" in="SourceGraphic" in2="BackgroundImageFix" result="shape"/>
<feColorMatrix in="SourceAlpha" type="matrix" values="0 0 0 0 0 0 0 0 0 0 0 0 0 0 0 0 0 0 127 0" result="hardAlpha"/>
<feOffset dy="-1"/>
<feGaussianBlur stdDeviation="0.5"/>
<feComposite in2="hardAlpha" operator="arithmetic" k2="-1" k3="1"/>
<feColorMatrix type="matrix" values="0 0 0 0 0 0 0 0 0 0 0 0 0 0 0 0 0 0 0.25 0"/>
<feBlend mode="normal" in2="shape" result="effect1_innerShadow_1309_8111"/>
</filter>
<filter id="filter6_i_1309_8111" x="1001.34" y="115.869" width="2.63977" height="4.23438" filterUnits="userSpaceOnUse" color-interpolation-filters="sRGB">
<feFlood flood-opacity="0" result="BackgroundImageFix"/>
<feBlend mode="normal" in="SourceGraphic" in2="BackgroundImageFix" result="shape"/>
<feColorMatrix in="SourceAlpha" type="matrix" values="0 0 0 0 0 0 0 0 0 0 0 0 0 0 0 0 0 0 127 0" result="hardAlpha"/>
<feOffset dy="-1"/>
<feGaussianBlur stdDeviation="0.5"/>
<feComposite in2="hardAlpha" operator="arithmetic" k2="-1" k3="1"/>
<feColorMatrix type="matrix" values="0 0 0 0 0 0 0 0 0 0 0 0 0 0 0 0 0 0 0.25 0"/>
<feBlend mode="normal" in2="shape" result="effect1_innerShadow_1309_8111"/>
</filter>
<filter id="filter7_i_1309_8111" x="1003.98" y="115.869" width="2.63977" height="3.97266" filterUnits="userSpaceOnUse" color-interpolation-filters="sRGB">
<feFlood flood-opacity="0" result="BackgroundImageFix"/>
<feBlend mode="normal" in="SourceGraphic" in2="BackgroundImageFix" result="shape"/>
<feColorMatrix in="SourceAlpha" type="matrix" values="0 0 0 0 0 0 0 0 0 0 0 0 0 0 0 0 0 0 127 0" result="hardAlpha"/>
<feOffset dy="-1"/>
<feGaussianBlur stdDeviation="0.5"/>
<feComposite in2="hardAlpha" operator="arithmetic" k2="-1" k3="1"/>
<feColorMatrix type="matrix" values="0 0 0 0 0 0 0 0 0 0 0 0 0 0 0 0 0 0 0.25 0"/>
<feBlend mode="normal" in2="shape" result="effect1_innerShadow_1309_8111"/>
</filter>
<filter id="filter8_i_1309_8111" x="1006.62" y="115.869" width="2.63977" height="3.70898" filterUnits="userSpaceOnUse" color-interpolation-filters="sRGB">
<feFlood flood-opacity="0" result="BackgroundImageFix"/>
<feBlend mode="normal" in="SourceGraphic" in2="BackgroundImageFix" result="shape"/>
<feColorMatrix in="SourceAlpha" type="matrix" values="0 0 0 0 0 0 0 0 0 0 0 0 0 0 0 0 0 0 127 0" result="hardAlpha"/>
<feOffset dy="-1"/>
<feGaussianBlur stdDeviation="0.5"/>
<feComposite in2="hardAlpha" operator="arithmetic" k2="-1" k3="1"/>
<feColorMatrix type="matrix" values="0 0 0 0 0 0 0 0 0 0 0 0 0 0 0 0 0 0 0.25 0"/>
<feBlend mode="normal" in2="shape" result="effect1_innerShadow_1309_8111"/>
</filter>
<filter id="filter9_i_1309_8111" x="1009.26" y="115.896" width="2.63977" height="3.41211" filterUnits="userSpaceOnUse" color-interpolation-filters="sRGB">
<feFlood flood-opacity="0" result="BackgroundImageFix"/>
<feBlend mode="normal" in="SourceGraphic" in2="BackgroundImageFix" result="shape"/>
<feColorMatrix in="SourceAlpha" type="matrix" values="0 0 0 0 0 0 0 0 0 0 0 0 0 0 0 0 0 0 127 0" result="hardAlpha"/>
<feOffset dy="-1"/>
<feGaussianBlur stdDeviation="0.5"/>
<feComposite in2="hardAlpha" operator="arithmetic" k2="-1" k3="1"/>
<feColorMatrix type="matrix" values="0 0 0 0 0 0 0 0 0 0 0 0 0 0 0 0 0 0 0.25 0"/>
<feBlend mode="normal" in2="shape" result="effect1_innerShadow_1309_8111"/>
</filter>
<filter id="filter10_i_1309_8111" x="1011.9" y="115.869" width="2.63977" height="3.12891" filterUnits="userSpaceOnUse" color-interpolation-filters="sRGB">
<feFlood flood-opacity="0" result="BackgroundImageFix"/>
<feBlend mode="normal" in="SourceGraphic" in2="BackgroundImageFix" result="shape"/>
<feColorMatrix in="SourceAlpha" type="matrix" values="0 0 0 0 0 0 0 0 0 0 0 0 0 0 0 0 0 0 127 0" result="hardAlpha"/>
<feOffset dy="-1"/>
<feGaussianBlur stdDeviation="0.5"/>
<feComposite in2="hardAlpha" operator="arithmetic" k2="-1" k3="1"/>
<feColorMatrix type="matrix" values="0 0 0 0 0 0 0 0 0 0 0 0 0 0 0 0 0 0 0.25 0"/>
<feBlend mode="normal" in2="shape" result="effect1_innerShadow_1309_8111"/>
</filter>
<filter id="filter11_b_1309_8111" x="50.6565" y="177.961" width="55.5775" height="54.6309" filterUnits="userSpaceOnUse" color-interpolation-filters="sRGB">
<feFlood flood-opacity="0" result="BackgroundImageFix"/>
<feGaussianBlur in="BackgroundImageFix" stdDeviation="2"/>
<feComposite in2="SourceAlpha" operator="in" result="effect1_backgroundBlur_1309_8111"/>
<feBlend mode="normal" in="SourceGraphic" in2="effect1_backgroundBlur_1309_8111" result="shape"/>
</filter>
<filter id="filter12_b_1309_8111" x="110.079" y="177.961" width="55.5775" height="54.6309" filterUnits="userSpaceOnUse" color-interpolation-filters="sRGB">
<feFlood flood-opacity="0" result="BackgroundImageFix"/>
<feGaussianBlur in="BackgroundImageFix" stdDeviation="2"/>
<feComposite in2="SourceAlpha" operator="in" result="effect1_backgroundBlur_1309_8111"/>
<feBlend mode="normal" in="SourceGraphic" in2="effect1_backgroundBlur_1309_8111" result="shape"/>
</filter>
<filter id="filter13_b_1309_8111" x="169.501" y="177.961" width="55.5775" height="54.6309" filterUnits="userSpaceOnUse" color-interpolation-filters="sRGB">
<feFlood flood-opacity="0" result="BackgroundImageFix"/>
<feGaussianBlur in="BackgroundImageFix" stdDeviation="2"/>
<feComposite in2="SourceAlpha" operator="in" result="effect1_backgroundBlur_1309_8111"/>
<feBlend mode="normal" in="SourceGraphic" in2="effect1_backgroundBlur_1309_8111" result="shape"/>
</filter>
<filter id="filter14_b_1309_8111" x="228.924" y="177.961" width="55.5775" height="54.6309" filterUnits="userSpaceOnUse" color-interpolation-filters="sRGB">
<feFlood flood-opacity="0" result="BackgroundImageFix"/>
<feGaussianBlur in="BackgroundImageFix" stdDeviation="2"/>
<feComposite in2="SourceAlpha" operator="in" result="effect1_backgroundBlur_1309_8111"/>
<feBlend mode="normal" in="SourceGraphic" in2="effect1_backgroundBlur_1309_8111" result="shape"/>
</filter>
<linearGradient id="paint0_linear_1309_8111" x1="597.5" y1="0" x2="597.5" y2="367" gradientUnits="userSpaceOnUse">
<stop stop-color="#0500FF"/>
<stop offset="0.520833" stop-color="#221EF9" stop-opacity="0.90625"/>
<stop offset="1" stop-color="#0500FF"/>
</linearGradient>
</defs>
</svg>
